%TF.GenerationSoftware,KiCad,Pcbnew,(6.0.4)*%
%TF.CreationDate,2022-05-02T09:06:26-05:00*%
%TF.ProjectId,cpu_board,6370755f-626f-4617-9264-2e6b69636164,rev?*%
%TF.SameCoordinates,Original*%
%TF.FileFunction,Legend,Top*%
%TF.FilePolarity,Positive*%
%FSLAX46Y46*%
G04 Gerber Fmt 4.6, Leading zero omitted, Abs format (unit mm)*
G04 Created by KiCad (PCBNEW (6.0.4)) date 2022-05-02 09:06:26*
%MOMM*%
%LPD*%
G01*
G04 APERTURE LIST*
%ADD10C,0.150000*%
%ADD11C,0.120000*%
%ADD12C,0.127000*%
G04 APERTURE END LIST*
D10*
%TO.C,U3*%
X83238095Y-120252380D02*
X83238095Y-121061904D01*
X83285714Y-121157142D01*
X83333333Y-121204761D01*
X83428571Y-121252380D01*
X83619047Y-121252380D01*
X83714285Y-121204761D01*
X83761904Y-121157142D01*
X83809523Y-121061904D01*
X83809523Y-120252380D01*
X84190476Y-120252380D02*
X84809523Y-120252380D01*
X84476190Y-120633333D01*
X84619047Y-120633333D01*
X84714285Y-120680952D01*
X84761904Y-120728571D01*
X84809523Y-120823809D01*
X84809523Y-121061904D01*
X84761904Y-121157142D01*
X84714285Y-121204761D01*
X84619047Y-121252380D01*
X84333333Y-121252380D01*
X84238095Y-121204761D01*
X84190476Y-121157142D01*
%TO.C,U2*%
X102238095Y-120252380D02*
X102238095Y-121061904D01*
X102285714Y-121157142D01*
X102333333Y-121204761D01*
X102428571Y-121252380D01*
X102619047Y-121252380D01*
X102714285Y-121204761D01*
X102761904Y-121157142D01*
X102809523Y-121061904D01*
X102809523Y-120252380D01*
X103238095Y-120347619D02*
X103285714Y-120300000D01*
X103380952Y-120252380D01*
X103619047Y-120252380D01*
X103714285Y-120300000D01*
X103761904Y-120347619D01*
X103809523Y-120442857D01*
X103809523Y-120538095D01*
X103761904Y-120680952D01*
X103190476Y-121252380D01*
X103809523Y-121252380D01*
%TO.C,X1*%
X63190476Y-85902380D02*
X63857142Y-86902380D01*
X63857142Y-85902380D02*
X63190476Y-86902380D01*
X64761904Y-86902380D02*
X64190476Y-86902380D01*
X64476190Y-86902380D02*
X64476190Y-85902380D01*
X64380952Y-86045238D01*
X64285714Y-86140476D01*
X64190476Y-86188095D01*
%TO.C,J2*%
X93936666Y-44352380D02*
X93936666Y-45066666D01*
X93889047Y-45209523D01*
X93793809Y-45304761D01*
X93650952Y-45352380D01*
X93555714Y-45352380D01*
X94365238Y-44447619D02*
X94412857Y-44400000D01*
X94508095Y-44352380D01*
X94746190Y-44352380D01*
X94841428Y-44400000D01*
X94889047Y-44447619D01*
X94936666Y-44542857D01*
X94936666Y-44638095D01*
X94889047Y-44780952D01*
X94317619Y-45352380D01*
X94936666Y-45352380D01*
%TO.C,J4*%
X26841666Y-129379880D02*
X26841666Y-130094166D01*
X26794047Y-130237023D01*
X26698809Y-130332261D01*
X26555952Y-130379880D01*
X26460714Y-130379880D01*
X27746428Y-129713214D02*
X27746428Y-130379880D01*
X27508333Y-129332261D02*
X27270238Y-130046547D01*
X27889285Y-130046547D01*
%TO.C,U1*%
X39938095Y-43122380D02*
X39938095Y-43931904D01*
X39985714Y-44027142D01*
X40033333Y-44074761D01*
X40128571Y-44122380D01*
X40319047Y-44122380D01*
X40414285Y-44074761D01*
X40461904Y-44027142D01*
X40509523Y-43931904D01*
X40509523Y-43122380D01*
X41509523Y-44122380D02*
X40938095Y-44122380D01*
X41223809Y-44122380D02*
X41223809Y-43122380D01*
X41128571Y-43265238D01*
X41033333Y-43360476D01*
X40938095Y-43408095D01*
%TO.C,J1*%
X103936666Y-44352380D02*
X103936666Y-45066666D01*
X103889047Y-45209523D01*
X103793809Y-45304761D01*
X103650952Y-45352380D01*
X103555714Y-45352380D01*
X104936666Y-45352380D02*
X104365238Y-45352380D01*
X104650952Y-45352380D02*
X104650952Y-44352380D01*
X104555714Y-44495238D01*
X104460476Y-44590476D01*
X104365238Y-44638095D01*
%TO.C,J3*%
X113936666Y-44352380D02*
X113936666Y-45066666D01*
X113889047Y-45209523D01*
X113793809Y-45304761D01*
X113650952Y-45352380D01*
X113555714Y-45352380D01*
X114317619Y-44352380D02*
X114936666Y-44352380D01*
X114603333Y-44733333D01*
X114746190Y-44733333D01*
X114841428Y-44780952D01*
X114889047Y-44828571D01*
X114936666Y-44923809D01*
X114936666Y-45161904D01*
X114889047Y-45257142D01*
X114841428Y-45304761D01*
X114746190Y-45352380D01*
X114460476Y-45352380D01*
X114365238Y-45304761D01*
X114317619Y-45257142D01*
D11*
%TO.C,U3*%
X84000000Y-121615000D02*
X86200000Y-121615000D01*
X84000000Y-121615000D02*
X80400000Y-121615000D01*
X84000000Y-128385000D02*
X86200000Y-128385000D01*
X84000000Y-128385000D02*
X81800000Y-128385000D01*
%TO.C,U2*%
X103000000Y-121615000D02*
X105200000Y-121615000D01*
X103000000Y-121615000D02*
X99400000Y-121615000D01*
X103000000Y-128385000D02*
X105200000Y-128385000D01*
X103000000Y-128385000D02*
X100800000Y-128385000D01*
%TO.C,X1*%
X70450000Y-84700000D02*
X70450000Y-72550000D01*
X57550000Y-73300000D02*
X57550000Y-84700000D01*
X70450000Y-72550000D02*
X58300000Y-72550000D01*
X58300000Y-85450000D02*
X69700000Y-85450000D01*
X58300000Y-72550000D02*
G75*
G03*
X57550000Y-73300000I0J-750000D01*
G01*
X69700000Y-85450000D02*
G75*
G03*
X70450000Y-84700000I0J750000D01*
G01*
X57550000Y-84700000D02*
G75*
G03*
X58300000Y-85450000I750000J0D01*
G01*
%TO.C,J2*%
X88320000Y-50500000D02*
X88320000Y-51500000D01*
X98830000Y-45790000D02*
X98830000Y-96850000D01*
X89710000Y-69270000D02*
X91020000Y-69270000D01*
X91020000Y-73370000D02*
X89710000Y-73370000D01*
X89710000Y-96850000D02*
X89710000Y-45790000D01*
X98830000Y-96850000D02*
X89710000Y-96850000D01*
X97520000Y-95550000D02*
X91020000Y-95550000D01*
X89710000Y-45790000D02*
X98830000Y-45790000D01*
X91020000Y-47090000D02*
X97520000Y-47090000D01*
X88320000Y-51500000D02*
X89320000Y-51000000D01*
X91020000Y-95550000D02*
X91020000Y-73370000D01*
X97520000Y-47090000D02*
X97520000Y-95550000D01*
X89320000Y-51000000D02*
X88320000Y-50500000D01*
X91020000Y-73370000D02*
X91020000Y-73370000D01*
X91020000Y-69270000D02*
X91020000Y-47090000D01*
D12*
%TO.C,J4*%
X25000000Y-137567500D02*
X31635000Y-137567500D01*
X112365000Y-137567500D02*
X119000000Y-137567500D01*
X25000000Y-142877500D02*
X119000000Y-142877500D01*
X119000000Y-137567500D02*
X119000000Y-142877500D01*
X25000000Y-142877500D02*
X25000000Y-137567500D01*
D11*
%TO.C,U1*%
X54730000Y-44610000D02*
X26670000Y-44610000D01*
X29160000Y-44670000D02*
X29160000Y-126070000D01*
X54730000Y-126130000D02*
X54730000Y-44610000D01*
X29160000Y-126070000D02*
X52240000Y-126070000D01*
X52240000Y-44670000D02*
X41700000Y-44670000D01*
X52240000Y-126070000D02*
X52240000Y-44670000D01*
X26670000Y-44610000D02*
X26670000Y-126130000D01*
X26670000Y-126130000D02*
X54730000Y-126130000D01*
X39700000Y-44670000D02*
X29160000Y-44670000D01*
X39700000Y-44670000D02*
G75*
G03*
X41700000Y-44670000I1000000J0D01*
G01*
%TO.C,J1*%
X98320000Y-51500000D02*
X99320000Y-51000000D01*
X101020000Y-95550000D02*
X101020000Y-73370000D01*
X101020000Y-73370000D02*
X99710000Y-73370000D01*
X101020000Y-47090000D02*
X107520000Y-47090000D01*
X99710000Y-69270000D02*
X101020000Y-69270000D01*
X99320000Y-51000000D02*
X98320000Y-50500000D01*
X107520000Y-47090000D02*
X107520000Y-95550000D01*
X99710000Y-96850000D02*
X99710000Y-45790000D01*
X107520000Y-95550000D02*
X101020000Y-95550000D01*
X108830000Y-45790000D02*
X108830000Y-96850000D01*
X101020000Y-73370000D02*
X101020000Y-73370000D01*
X101020000Y-69270000D02*
X101020000Y-47090000D01*
X99710000Y-45790000D02*
X108830000Y-45790000D01*
X108830000Y-96850000D02*
X99710000Y-96850000D01*
X98320000Y-50500000D02*
X98320000Y-51500000D01*
%TO.C,J3*%
X117520000Y-95550000D02*
X111020000Y-95550000D01*
X111020000Y-69270000D02*
X111020000Y-47090000D01*
X108320000Y-51500000D02*
X109320000Y-51000000D01*
X111020000Y-73370000D02*
X109710000Y-73370000D01*
X118830000Y-96850000D02*
X109710000Y-96850000D01*
X111020000Y-47090000D02*
X117520000Y-47090000D01*
X111020000Y-73370000D02*
X111020000Y-73370000D01*
X118830000Y-45790000D02*
X118830000Y-96850000D01*
X109710000Y-96850000D02*
X109710000Y-45790000D01*
X109710000Y-45790000D02*
X118830000Y-45790000D01*
X109320000Y-51000000D02*
X108320000Y-50500000D01*
X111020000Y-95550000D02*
X111020000Y-73370000D01*
X117520000Y-47090000D02*
X117520000Y-95550000D01*
X108320000Y-50500000D02*
X108320000Y-51500000D01*
X109710000Y-69270000D02*
X111020000Y-69270000D01*
%TD*%
M02*
