%TF.GenerationSoftware,KiCad,Pcbnew,(6.0.4)*%
%TF.CreationDate,2022-05-02T09:06:26-05:00*%
%TF.ProjectId,cpu_board,6370755f-626f-4617-9264-2e6b69636164,rev?*%
%TF.SameCoordinates,Original*%
%TF.FileFunction,Copper,L2,Bot*%
%TF.FilePolarity,Positive*%
%FSLAX46Y46*%
G04 Gerber Fmt 4.6, Leading zero omitted, Abs format (unit mm)*
G04 Created by KiCad (PCBNEW (6.0.4)) date 2022-05-02 09:06:26*
%MOMM*%
%LPD*%
G01*
G04 APERTURE LIST*
G04 Aperture macros list*
%AMRoundRect*
0 Rectangle with rounded corners*
0 $1 Rounding radius*
0 $2 $3 $4 $5 $6 $7 $8 $9 X,Y pos of 4 corners*
0 Add a 4 corners polygon primitive as box body*
4,1,4,$2,$3,$4,$5,$6,$7,$8,$9,$2,$3,0*
0 Add four circle primitives for the rounded corners*
1,1,$1+$1,$2,$3*
1,1,$1+$1,$4,$5*
1,1,$1+$1,$6,$7*
1,1,$1+$1,$8,$9*
0 Add four rect primitives between the rounded corners*
20,1,$1+$1,$2,$3,$4,$5,0*
20,1,$1+$1,$4,$5,$6,$7,0*
20,1,$1+$1,$6,$7,$8,$9,0*
20,1,$1+$1,$8,$9,$2,$3,0*%
G04 Aperture macros list end*
%TA.AperFunction,ComponentPad*%
%ADD10R,1.600000X1.600000*%
%TD*%
%TA.AperFunction,ComponentPad*%
%ADD11C,1.600000*%
%TD*%
%TA.AperFunction,ComponentPad*%
%ADD12RoundRect,0.250000X-0.600000X-0.600000X0.600000X-0.600000X0.600000X0.600000X-0.600000X0.600000X0*%
%TD*%
%TA.AperFunction,ComponentPad*%
%ADD13C,1.700000*%
%TD*%
%TA.AperFunction,ComponentPad*%
%ADD14R,1.350000X1.350000*%
%TD*%
%TA.AperFunction,ComponentPad*%
%ADD15C,1.350000*%
%TD*%
%TA.AperFunction,ComponentPad*%
%ADD16O,1.600000X1.600000*%
%TD*%
%TA.AperFunction,ViaPad*%
%ADD17C,0.800000*%
%TD*%
%TA.AperFunction,Conductor*%
%ADD18C,0.250000*%
%TD*%
G04 APERTURE END LIST*
D10*
%TO.P,X1,1,EN*%
%TO.N,+5V*%
X67810000Y-75190000D03*
D11*
%TO.P,X1,4,GND*%
%TO.N,GND*%
X60190000Y-75190000D03*
%TO.P,X1,5,OUT*%
%TO.N,/CLK*%
X60190000Y-82810000D03*
%TO.P,X1,8,Vcc*%
%TO.N,+5V*%
X67810000Y-82810000D03*
%TD*%
D12*
%TO.P,J2,1,Pin_1*%
%TO.N,/CPU_A1*%
X93000000Y-51000000D03*
D13*
%TO.P,J2,2,Pin_2*%
%TO.N,unconnected-(J2-Pad2)*%
X95540000Y-51000000D03*
%TO.P,J2,3,Pin_3*%
%TO.N,/CPU_A2*%
X93000000Y-53540000D03*
%TO.P,J2,4,Pin_4*%
%TO.N,unconnected-(J2-Pad4)*%
X95540000Y-53540000D03*
%TO.P,J2,5,Pin_5*%
%TO.N,/CPU_A3*%
X93000000Y-56080000D03*
%TO.P,J2,6,Pin_6*%
%TO.N,unconnected-(J2-Pad6)*%
X95540000Y-56080000D03*
%TO.P,J2,7,Pin_7*%
%TO.N,/CPU_A4*%
X93000000Y-58620000D03*
%TO.P,J2,8,Pin_8*%
%TO.N,unconnected-(J2-Pad8)*%
X95540000Y-58620000D03*
%TO.P,J2,9,Pin_9*%
%TO.N,/CPU_A5*%
X93000000Y-61160000D03*
%TO.P,J2,10,Pin_10*%
%TO.N,/~DCO*%
X95540000Y-61160000D03*
%TO.P,J2,11,Pin_11*%
%TO.N,/CPU_A6*%
X93000000Y-63700000D03*
%TO.P,J2,12,Pin_12*%
%TO.N,/~CPU_BERR*%
X95540000Y-63700000D03*
%TO.P,J2,13,Pin_13*%
%TO.N,/CPU_A7*%
X93000000Y-66240000D03*
%TO.P,J2,14,Pin_14*%
%TO.N,/~CPU_DTACK*%
X95540000Y-66240000D03*
%TO.P,J2,15,Pin_15*%
%TO.N,/CPU_A8*%
X93000000Y-68780000D03*
%TO.P,J2,16,Pin_16*%
%TO.N,/CPU_R{slash}W*%
X95540000Y-68780000D03*
%TO.P,J2,17,Pin_17*%
%TO.N,/CPU_A9*%
X93000000Y-71320000D03*
%TO.P,J2,18,Pin_18*%
%TO.N,/~CPU_LDS*%
X95540000Y-71320000D03*
%TO.P,J2,19,Pin_19*%
%TO.N,/CPU_A10*%
X93000000Y-73860000D03*
%TO.P,J2,20,Pin_20*%
%TO.N,/~CPU_UDS*%
X95540000Y-73860000D03*
%TO.P,J2,21,Pin_21*%
%TO.N,/CPU_A11*%
X93000000Y-76400000D03*
%TO.P,J2,22,Pin_22*%
%TO.N,/~CPU_AS*%
X95540000Y-76400000D03*
%TO.P,J2,23,Pin_23*%
%TO.N,/CPU_A12*%
X93000000Y-78940000D03*
%TO.P,J2,24,Pin_24*%
%TO.N,/CPU_A23*%
X95540000Y-78940000D03*
%TO.P,J2,25,Pin_25*%
%TO.N,/CPU_A13*%
X93000000Y-81480000D03*
%TO.P,J2,26,Pin_26*%
%TO.N,/CPU_A22*%
X95540000Y-81480000D03*
%TO.P,J2,27,Pin_27*%
%TO.N,/CPU_A14*%
X93000000Y-84020000D03*
%TO.P,J2,28,Pin_28*%
%TO.N,/CPU_A21*%
X95540000Y-84020000D03*
%TO.P,J2,29,Pin_29*%
%TO.N,/CPU_A15*%
X93000000Y-86560000D03*
%TO.P,J2,30,Pin_30*%
%TO.N,/CPU_A20*%
X95540000Y-86560000D03*
%TO.P,J2,31,Pin_31*%
%TO.N,/CPU_A16*%
X93000000Y-89100000D03*
%TO.P,J2,32,Pin_32*%
%TO.N,/CPU_A19*%
X95540000Y-89100000D03*
%TO.P,J2,33,Pin_33*%
%TO.N,/CPU_A17*%
X93000000Y-91640000D03*
%TO.P,J2,34,Pin_34*%
%TO.N,/CPU_A18*%
X95540000Y-91640000D03*
%TD*%
D14*
%TO.P,J4,A1,A1*%
%TO.N,/BUS_A1*%
X111370000Y-132487500D03*
D15*
%TO.P,J4,A2,A2*%
%TO.N,/BUS_A2*%
X108830000Y-132487500D03*
%TO.P,J4,A3,A3*%
%TO.N,/BUS_A3*%
X106290000Y-132487500D03*
%TO.P,J4,A4,A4*%
%TO.N,/BUS_A4*%
X103750000Y-132487500D03*
%TO.P,J4,A5,A5*%
%TO.N,/BUS_A5*%
X101210000Y-132487500D03*
%TO.P,J4,A6,A6*%
%TO.N,/BUS_A6*%
X98670000Y-132487500D03*
%TO.P,J4,A7,A7*%
%TO.N,/BUS_A7*%
X96130000Y-132487500D03*
%TO.P,J4,A8,A8*%
%TO.N,/BUS_A8*%
X93590000Y-132487500D03*
%TO.P,J4,A9,A9*%
%TO.N,/BUS_A9*%
X91050000Y-132487500D03*
%TO.P,J4,A10,A10*%
%TO.N,/BUS_A10*%
X88510000Y-132487500D03*
%TO.P,J4,A11,A11*%
%TO.N,/BUS_A11*%
X85970000Y-132487500D03*
%TO.P,J4,A12,A12*%
%TO.N,/BUS_A12*%
X83430000Y-132487500D03*
%TO.P,J4,A13,A13*%
%TO.N,/BUS_A13*%
X80890000Y-132487500D03*
%TO.P,J4,A14,A14*%
%TO.N,/BUS_A14*%
X78350000Y-132487500D03*
%TO.P,J4,A15,A15*%
%TO.N,/BUS_A15*%
X75810000Y-132487500D03*
%TO.P,J4,A16,A16*%
%TO.N,/BUS_A16*%
X73270000Y-132487500D03*
%TO.P,J4,A17,A17*%
%TO.N,/BUS_A17*%
X70730000Y-132487500D03*
%TO.P,J4,A18,A18*%
%TO.N,/BUS_A18*%
X68190000Y-132487500D03*
%TO.P,J4,A19,A19*%
%TO.N,/BUS_A19*%
X65650000Y-132487500D03*
%TO.P,J4,A20,A20*%
%TO.N,/BUS_A20*%
X63110000Y-132487500D03*
%TO.P,J4,A21,A21*%
%TO.N,/BUS_A21*%
X60570000Y-132487500D03*
%TO.P,J4,A22,A22*%
%TO.N,/BUS_A22*%
X58030000Y-132487500D03*
%TO.P,J4,A23,A23*%
%TO.N,/BUS_A23*%
X55490000Y-132487500D03*
%TO.P,J4,A24,A24*%
%TO.N,/A24*%
X52950000Y-132487500D03*
%TO.P,J4,A25,A25*%
%TO.N,/A25*%
X50410000Y-132487500D03*
%TO.P,J4,A26,A26*%
%TO.N,/A26*%
X47870000Y-132487500D03*
%TO.P,J4,A27,A27*%
%TO.N,/A27*%
X45330000Y-132487500D03*
%TO.P,J4,A28,A28*%
%TO.N,/A28*%
X42790000Y-132487500D03*
%TO.P,J4,A29,A29*%
%TO.N,/A29*%
X40250000Y-132487500D03*
%TO.P,J4,A30,A30*%
%TO.N,/A30*%
X37710000Y-132487500D03*
%TO.P,J4,A31,A31*%
%TO.N,/A31*%
X35170000Y-132487500D03*
%TO.P,J4,A32,A32*%
%TO.N,/D0*%
X32630000Y-132487500D03*
%TO.P,J4,B1,B1*%
%TO.N,/D1*%
X111370000Y-135027500D03*
%TO.P,J4,B2,B2*%
%TO.N,/D2*%
X108830000Y-135027500D03*
%TO.P,J4,B3,B3*%
%TO.N,/D3*%
X106290000Y-135027500D03*
%TO.P,J4,B4,B4*%
%TO.N,/D4*%
X103750000Y-135027500D03*
%TO.P,J4,B5,B5*%
%TO.N,/D5*%
X101210000Y-135027500D03*
%TO.P,J4,B6,B6*%
%TO.N,/D6*%
X98670000Y-135027500D03*
%TO.P,J4,B7,B7*%
%TO.N,/D7*%
X96130000Y-135027500D03*
%TO.P,J4,B8,B8*%
%TO.N,/D8*%
X93590000Y-135027500D03*
%TO.P,J4,B9,B9*%
%TO.N,/D9*%
X91050000Y-135027500D03*
%TO.P,J4,B10,B10*%
%TO.N,/D10*%
X88510000Y-135027500D03*
%TO.P,J4,B11,B11*%
%TO.N,/D11*%
X85970000Y-135027500D03*
%TO.P,J4,B12,B12*%
%TO.N,/D12*%
X83430000Y-135027500D03*
%TO.P,J4,B13,B13*%
%TO.N,/D13*%
X80890000Y-135027500D03*
%TO.P,J4,B14,B14*%
%TO.N,/D14*%
X78350000Y-135027500D03*
%TO.P,J4,B15,B15*%
%TO.N,/D15*%
X75810000Y-135027500D03*
%TO.P,J4,B16,B16*%
%TO.N,/~CPU_BERR*%
X73270000Y-135027500D03*
%TO.P,J4,B17,B17*%
%TO.N,/~CPU_DTACK*%
X70730000Y-135027500D03*
%TO.P,J4,B18,B18*%
%TO.N,/~CPU_AS*%
X68190000Y-135027500D03*
%TO.P,J4,B19,B19*%
%TO.N,/~CPU_UDS*%
X65650000Y-135027500D03*
%TO.P,J4,B20,B20*%
%TO.N,/~CPU_LDS*%
X63110000Y-135027500D03*
%TO.P,J4,B21,B21*%
%TO.N,/CPU_R{slash}W*%
X60570000Y-135027500D03*
%TO.P,J4,B22,B22*%
%TO.N,/VPA*%
X58030000Y-135027500D03*
%TO.P,J4,B23,B23*%
%TO.N,/E*%
X55490000Y-135027500D03*
%TO.P,J4,B24,B24*%
%TO.N,/~VMA*%
X52950000Y-135027500D03*
%TO.P,J4,B25,B25*%
%TO.N,/FC2*%
X50410000Y-135027500D03*
%TO.P,J4,B26,B26*%
%TO.N,/FC1*%
X47870000Y-135027500D03*
%TO.P,J4,B27,B27*%
%TO.N,/FC0*%
X45330000Y-135027500D03*
%TO.P,J4,B28,B28*%
%TO.N,/~BR*%
X42790000Y-135027500D03*
%TO.P,J4,B29,B29*%
%TO.N,/~BG*%
X40250000Y-135027500D03*
%TO.P,J4,B30,B30*%
%TO.N,/~BGACK*%
X37710000Y-135027500D03*
%TO.P,J4,B31,B31*%
%TO.N,/~IPL2*%
X35170000Y-135027500D03*
%TO.P,J4,B32,B32*%
%TO.N,/~IPL1*%
X32630000Y-135027500D03*
%TO.P,J4,C1,C1*%
%TO.N,/~IPL0*%
X111370000Y-137567500D03*
%TO.P,J4,C2,C2*%
%TO.N,/CLK*%
X108830000Y-137567500D03*
%TO.P,J4,C3,C3*%
%TO.N,GND*%
X106290000Y-137567500D03*
%TO.P,J4,C4,C4*%
%TO.N,+5V*%
X103750000Y-137567500D03*
%TO.P,J4,C5,C5*%
%TO.N,unconnected-(J4-PadC5)*%
X101210000Y-137567500D03*
%TO.P,J4,C6,C6*%
%TO.N,unconnected-(J4-PadC6)*%
X98670000Y-137567500D03*
%TO.P,J4,C7,C7*%
%TO.N,unconnected-(J4-PadC7)*%
X96130000Y-137567500D03*
%TO.P,J4,C8,C8*%
%TO.N,unconnected-(J4-PadC8)*%
X93590000Y-137567500D03*
%TO.P,J4,C9,C9*%
%TO.N,unconnected-(J4-PadC9)*%
X91050000Y-137567500D03*
%TO.P,J4,C10,C10*%
%TO.N,unconnected-(J4-PadC10)*%
X88510000Y-137567500D03*
%TO.P,J4,C11,C11*%
%TO.N,unconnected-(J4-PadC11)*%
X85970000Y-137567500D03*
%TO.P,J4,C12,C12*%
%TO.N,unconnected-(J4-PadC12)*%
X83430000Y-137567500D03*
%TO.P,J4,C13,C13*%
%TO.N,unconnected-(J4-PadC13)*%
X80890000Y-137567500D03*
%TO.P,J4,C14,C14*%
%TO.N,unconnected-(J4-PadC14)*%
X78350000Y-137567500D03*
%TO.P,J4,C15,C15*%
%TO.N,unconnected-(J4-PadC15)*%
X75810000Y-137567500D03*
%TO.P,J4,C16,C16*%
%TO.N,unconnected-(J4-PadC16)*%
X73270000Y-137567500D03*
%TO.P,J4,C17,C17*%
%TO.N,unconnected-(J4-PadC17)*%
X70730000Y-137567500D03*
%TO.P,J4,C18,C18*%
%TO.N,unconnected-(J4-PadC18)*%
X68190000Y-137567500D03*
%TO.P,J4,C19,C19*%
%TO.N,unconnected-(J4-PadC19)*%
X65650000Y-137567500D03*
%TO.P,J4,C20,C20*%
%TO.N,unconnected-(J4-PadC20)*%
X63110000Y-137567500D03*
%TO.P,J4,C21,C21*%
%TO.N,unconnected-(J4-PadC21)*%
X60570000Y-137567500D03*
%TO.P,J4,C22,C22*%
%TO.N,unconnected-(J4-PadC22)*%
X58030000Y-137567500D03*
%TO.P,J4,C23,C23*%
%TO.N,unconnected-(J4-PadC23)*%
X55490000Y-137567500D03*
%TO.P,J4,C24,C24*%
%TO.N,unconnected-(J4-PadC24)*%
X52950000Y-137567500D03*
%TO.P,J4,C25,C25*%
%TO.N,unconnected-(J4-PadC25)*%
X50410000Y-137567500D03*
%TO.P,J4,C26,C26*%
%TO.N,unconnected-(J4-PadC26)*%
X47870000Y-137567500D03*
%TO.P,J4,C27,C27*%
%TO.N,unconnected-(J4-PadC27)*%
X45330000Y-137567500D03*
%TO.P,J4,C28,C28*%
%TO.N,unconnected-(J4-PadC28)*%
X42790000Y-137567500D03*
%TO.P,J4,C29,C29*%
%TO.N,unconnected-(J4-PadC29)*%
X40250000Y-137567500D03*
%TO.P,J4,C30,C30*%
%TO.N,unconnected-(J4-PadC30)*%
X37710000Y-137567500D03*
%TO.P,J4,C31,C31*%
%TO.N,unconnected-(J4-PadC31)*%
X35170000Y-137567500D03*
%TO.P,J4,C32,C32*%
%TO.N,unconnected-(J4-PadC32)*%
X32630000Y-137567500D03*
%TD*%
D10*
%TO.P,U1,1,D4*%
%TO.N,/CPU_D4*%
X28000000Y-46000000D03*
D16*
%TO.P,U1,2,D3*%
%TO.N,/CPU_D3*%
X28000000Y-48540000D03*
%TO.P,U1,3,D2*%
%TO.N,/CPU_D2*%
X28000000Y-51080000D03*
%TO.P,U1,4,D1*%
%TO.N,/CPU_D1*%
X28000000Y-53620000D03*
%TO.P,U1,5,D0*%
%TO.N,/CPU_D0*%
X28000000Y-56160000D03*
%TO.P,U1,6,AS*%
%TO.N,/~CPU_AS*%
X28000000Y-58700000D03*
%TO.P,U1,7,UDS*%
%TO.N,/~CPU_UDS*%
X28000000Y-61240000D03*
%TO.P,U1,8,LDS*%
%TO.N,/~CPU_LDS*%
X28000000Y-63780000D03*
%TO.P,U1,9,R/W*%
%TO.N,/CPU_R{slash}W*%
X28000000Y-66320000D03*
%TO.P,U1,10,DTACK*%
%TO.N,/~CPU_DTACK*%
X28000000Y-68860000D03*
%TO.P,U1,11,BG*%
%TO.N,/~BG*%
X28000000Y-71400000D03*
%TO.P,U1,12,BGACK*%
%TO.N,/~BGACK*%
X28000000Y-73940000D03*
%TO.P,U1,13,BR*%
%TO.N,/~BR*%
X28000000Y-76480000D03*
%TO.P,U1,14,VCC*%
%TO.N,+5V*%
X28000000Y-79020000D03*
%TO.P,U1,15,CLK*%
%TO.N,/CLK*%
X28000000Y-81560000D03*
%TO.P,U1,16,GND*%
%TO.N,GND*%
X28000000Y-84100000D03*
%TO.P,U1,17,HALT*%
%TO.N,/~HALT*%
X28000000Y-86640000D03*
%TO.P,U1,18,RESET*%
%TO.N,/~RESET*%
X28000000Y-89180000D03*
%TO.P,U1,19,VMA*%
%TO.N,/~VMA*%
X28000000Y-91720000D03*
%TO.P,U1,20,E*%
%TO.N,/E*%
X28000000Y-94260000D03*
%TO.P,U1,21,VPA*%
%TO.N,/VPA*%
X28000000Y-96800000D03*
%TO.P,U1,22,BERR*%
%TO.N,/~CPU_BERR*%
X28000000Y-99340000D03*
%TO.P,U1,23,IPL2*%
%TO.N,/~IPL2*%
X28000000Y-101880000D03*
%TO.P,U1,24,IPL1*%
%TO.N,/~IPL1*%
X28000000Y-104420000D03*
%TO.P,U1,25,IPL0*%
%TO.N,/~IPL0*%
X28000000Y-106960000D03*
%TO.P,U1,26,FC2*%
%TO.N,/FC2*%
X28000000Y-109500000D03*
%TO.P,U1,27,FC1*%
%TO.N,/FC1*%
X28000000Y-112040000D03*
%TO.P,U1,28,FC0*%
%TO.N,/FC0*%
X28000000Y-114580000D03*
%TO.P,U1,29,A1*%
%TO.N,/CPU_A1*%
X28000000Y-117120000D03*
%TO.P,U1,30,A2*%
%TO.N,/CPU_A2*%
X28000000Y-119660000D03*
%TO.P,U1,31,A3*%
%TO.N,/CPU_A3*%
X28000000Y-122200000D03*
%TO.P,U1,32,A4*%
%TO.N,/CPU_A4*%
X28000000Y-124740000D03*
%TO.P,U1,33,A5*%
%TO.N,/CPU_A5*%
X53400000Y-124740000D03*
%TO.P,U1,34,A6*%
%TO.N,/CPU_A6*%
X53400000Y-122200000D03*
%TO.P,U1,35,A7*%
%TO.N,/CPU_A7*%
X53400000Y-119660000D03*
%TO.P,U1,36,A8*%
%TO.N,/CPU_A8*%
X53400000Y-117120000D03*
%TO.P,U1,37,A9*%
%TO.N,/CPU_A9*%
X53400000Y-114580000D03*
%TO.P,U1,38,A10*%
%TO.N,/CPU_A10*%
X53400000Y-112040000D03*
%TO.P,U1,39,A11*%
%TO.N,/CPU_A11*%
X53400000Y-109500000D03*
%TO.P,U1,40,A12*%
%TO.N,/CPU_A12*%
X53400000Y-106960000D03*
%TO.P,U1,41,A13*%
%TO.N,/CPU_A13*%
X53400000Y-104420000D03*
%TO.P,U1,42,A14*%
%TO.N,/CPU_A14*%
X53400000Y-101880000D03*
%TO.P,U1,43,A15*%
%TO.N,/CPU_A15*%
X53400000Y-99340000D03*
%TO.P,U1,44,A16*%
%TO.N,/CPU_A16*%
X53400000Y-96800000D03*
%TO.P,U1,45,A17*%
%TO.N,/CPU_A17*%
X53400000Y-94260000D03*
%TO.P,U1,46,A18*%
%TO.N,/CPU_A18*%
X53400000Y-91720000D03*
%TO.P,U1,47,A19*%
%TO.N,/CPU_A19*%
X53400000Y-89180000D03*
%TO.P,U1,48,A20*%
%TO.N,/CPU_A20*%
X53400000Y-86640000D03*
%TO.P,U1,49,VCC*%
%TO.N,+5V*%
X53400000Y-84100000D03*
%TO.P,U1,50,A21*%
%TO.N,/CPU_A21*%
X53400000Y-81560000D03*
%TO.P,U1,51,A22*%
%TO.N,/CPU_A22*%
X53400000Y-79020000D03*
%TO.P,U1,52,A23*%
%TO.N,/CPU_A23*%
X53400000Y-76480000D03*
%TO.P,U1,53,GND*%
%TO.N,GND*%
X53400000Y-73940000D03*
%TO.P,U1,54,D15*%
%TO.N,/CPU_D15*%
X53400000Y-71400000D03*
%TO.P,U1,55,D14*%
%TO.N,/CPU_D14*%
X53400000Y-68860000D03*
%TO.P,U1,56,D13*%
%TO.N,/CPU_D13*%
X53400000Y-66320000D03*
%TO.P,U1,57,D12*%
%TO.N,/CPU_D12*%
X53400000Y-63780000D03*
%TO.P,U1,58,D11*%
%TO.N,/CPU_D11*%
X53400000Y-61240000D03*
%TO.P,U1,59,D10*%
%TO.N,/CPU_D10*%
X53400000Y-58700000D03*
%TO.P,U1,60,D9*%
%TO.N,/CPU_D9*%
X53400000Y-56160000D03*
%TO.P,U1,61,D8*%
%TO.N,/CPU_D8*%
X53400000Y-53620000D03*
%TO.P,U1,62,D7*%
%TO.N,/CPU_D7*%
X53400000Y-51080000D03*
%TO.P,U1,63,D6*%
%TO.N,/CPU_D6*%
X53400000Y-48540000D03*
%TO.P,U1,64,D5*%
%TO.N,/CPU_D5*%
X53400000Y-46000000D03*
%TD*%
D12*
%TO.P,J1,1,Pin_1*%
%TO.N,/BUS_A1*%
X103000000Y-51000000D03*
D13*
%TO.P,J1,2,Pin_2*%
%TO.N,unconnected-(J1-Pad2)*%
X105540000Y-51000000D03*
%TO.P,J1,3,Pin_3*%
%TO.N,/BUS_A2*%
X103000000Y-53540000D03*
%TO.P,J1,4,Pin_4*%
%TO.N,unconnected-(J1-Pad4)*%
X105540000Y-53540000D03*
%TO.P,J1,5,Pin_5*%
%TO.N,/BUS_A3*%
X103000000Y-56080000D03*
%TO.P,J1,6,Pin_6*%
%TO.N,unconnected-(J1-Pad6)*%
X105540000Y-56080000D03*
%TO.P,J1,7,Pin_7*%
%TO.N,/BUS_A4*%
X103000000Y-58620000D03*
%TO.P,J1,8,Pin_8*%
%TO.N,unconnected-(J1-Pad8)*%
X105540000Y-58620000D03*
%TO.P,J1,9,Pin_9*%
%TO.N,/BUS_A5*%
X103000000Y-61160000D03*
%TO.P,J1,10,Pin_10*%
%TO.N,+5V*%
X105540000Y-61160000D03*
%TO.P,J1,11,Pin_11*%
%TO.N,/BUS_A6*%
X103000000Y-63700000D03*
%TO.P,J1,12,Pin_12*%
%TO.N,/~BUS_BERR*%
X105540000Y-63700000D03*
%TO.P,J1,13,Pin_13*%
%TO.N,/BUS_A7*%
X103000000Y-66240000D03*
%TO.P,J1,14,Pin_14*%
%TO.N,/~BUS_DTACK*%
X105540000Y-66240000D03*
%TO.P,J1,15,Pin_15*%
%TO.N,/BUS_A8*%
X103000000Y-68780000D03*
%TO.P,J1,16,Pin_16*%
%TO.N,/BUS_R{slash}W*%
X105540000Y-68780000D03*
%TO.P,J1,17,Pin_17*%
%TO.N,/BUS_A9*%
X103000000Y-71320000D03*
%TO.P,J1,18,Pin_18*%
%TO.N,/~BUS_LDS*%
X105540000Y-71320000D03*
%TO.P,J1,19,Pin_19*%
%TO.N,/BUS_A10*%
X103000000Y-73860000D03*
%TO.P,J1,20,Pin_20*%
%TO.N,/~BUS_UDS*%
X105540000Y-73860000D03*
%TO.P,J1,21,Pin_21*%
%TO.N,/BUS_A11*%
X103000000Y-76400000D03*
%TO.P,J1,22,Pin_22*%
%TO.N,/~BUS_AS*%
X105540000Y-76400000D03*
%TO.P,J1,23,Pin_23*%
%TO.N,/BUS_A12*%
X103000000Y-78940000D03*
%TO.P,J1,24,Pin_24*%
%TO.N,/BUS_A23*%
X105540000Y-78940000D03*
%TO.P,J1,25,Pin_25*%
%TO.N,/BUS_A13*%
X103000000Y-81480000D03*
%TO.P,J1,26,Pin_26*%
%TO.N,/BUS_A22*%
X105540000Y-81480000D03*
%TO.P,J1,27,Pin_27*%
%TO.N,/BUS_A14*%
X103000000Y-84020000D03*
%TO.P,J1,28,Pin_28*%
%TO.N,/BUS_A21*%
X105540000Y-84020000D03*
%TO.P,J1,29,Pin_29*%
%TO.N,/BUS_A15*%
X103000000Y-86560000D03*
%TO.P,J1,30,Pin_30*%
%TO.N,/BUS_A20*%
X105540000Y-86560000D03*
%TO.P,J1,31,Pin_31*%
%TO.N,/BUS_A16*%
X103000000Y-89100000D03*
%TO.P,J1,32,Pin_32*%
%TO.N,/BUS_A19*%
X105540000Y-89100000D03*
%TO.P,J1,33,Pin_33*%
%TO.N,/BUS_A17*%
X103000000Y-91640000D03*
%TO.P,J1,34,Pin_34*%
%TO.N,/BUS_A18*%
X105540000Y-91640000D03*
%TD*%
D12*
%TO.P,J3,1,Pin_1*%
%TO.N,/CPU_A1*%
X113000000Y-51000000D03*
D13*
%TO.P,J3,2,Pin_2*%
%TO.N,unconnected-(J3-Pad2)*%
X115540000Y-51000000D03*
%TO.P,J3,3,Pin_3*%
%TO.N,/CPU_A2*%
X113000000Y-53540000D03*
%TO.P,J3,4,Pin_4*%
%TO.N,unconnected-(J3-Pad4)*%
X115540000Y-53540000D03*
%TO.P,J3,5,Pin_5*%
%TO.N,/CPU_A3*%
X113000000Y-56080000D03*
%TO.P,J3,6,Pin_6*%
%TO.N,unconnected-(J3-Pad6)*%
X115540000Y-56080000D03*
%TO.P,J3,7,Pin_7*%
%TO.N,/CPU_A4*%
X113000000Y-58620000D03*
%TO.P,J3,8,Pin_8*%
%TO.N,unconnected-(J3-Pad8)*%
X115540000Y-58620000D03*
%TO.P,J3,9,Pin_9*%
%TO.N,/CPU_A5*%
X113000000Y-61160000D03*
%TO.P,J3,10,Pin_10*%
%TO.N,unconnected-(J3-Pad10)*%
X115540000Y-61160000D03*
%TO.P,J3,11,Pin_11*%
%TO.N,/CPU_A6*%
X113000000Y-63700000D03*
%TO.P,J3,12,Pin_12*%
%TO.N,/~CPU_BERR*%
X115540000Y-63700000D03*
%TO.P,J3,13,Pin_13*%
%TO.N,/CPU_A7*%
X113000000Y-66240000D03*
%TO.P,J3,14,Pin_14*%
%TO.N,/~CPU_DTACK*%
X115540000Y-66240000D03*
%TO.P,J3,15,Pin_15*%
%TO.N,/CPU_A8*%
X113000000Y-68780000D03*
%TO.P,J3,16,Pin_16*%
%TO.N,/CPU_R{slash}W*%
X115540000Y-68780000D03*
%TO.P,J3,17,Pin_17*%
%TO.N,/CPU_A9*%
X113000000Y-71320000D03*
%TO.P,J3,18,Pin_18*%
%TO.N,/~CPU_LDS*%
X115540000Y-71320000D03*
%TO.P,J3,19,Pin_19*%
%TO.N,/CPU_A10*%
X113000000Y-73860000D03*
%TO.P,J3,20,Pin_20*%
%TO.N,/~CPU_UDS*%
X115540000Y-73860000D03*
%TO.P,J3,21,Pin_21*%
%TO.N,/CPU_A11*%
X113000000Y-76400000D03*
%TO.P,J3,22,Pin_22*%
%TO.N,/~CPU_AS*%
X115540000Y-76400000D03*
%TO.P,J3,23,Pin_23*%
%TO.N,/CPU_A12*%
X113000000Y-78940000D03*
%TO.P,J3,24,Pin_24*%
%TO.N,/CPU_A23*%
X115540000Y-78940000D03*
%TO.P,J3,25,Pin_25*%
%TO.N,/CPU_A13*%
X113000000Y-81480000D03*
%TO.P,J3,26,Pin_26*%
%TO.N,/CPU_A22*%
X115540000Y-81480000D03*
%TO.P,J3,27,Pin_27*%
%TO.N,/CPU_A14*%
X113000000Y-84020000D03*
%TO.P,J3,28,Pin_28*%
%TO.N,/CPU_A21*%
X115540000Y-84020000D03*
%TO.P,J3,29,Pin_29*%
%TO.N,/CPU_A15*%
X113000000Y-86560000D03*
%TO.P,J3,30,Pin_30*%
%TO.N,/CPU_A20*%
X115540000Y-86560000D03*
%TO.P,J3,31,Pin_31*%
%TO.N,/CPU_A16*%
X113000000Y-89100000D03*
%TO.P,J3,32,Pin_32*%
%TO.N,/CPU_A19*%
X115540000Y-89100000D03*
%TO.P,J3,33,Pin_33*%
%TO.N,/CPU_A17*%
X113000000Y-91640000D03*
%TO.P,J3,34,Pin_34*%
%TO.N,/CPU_A18*%
X115540000Y-91640000D03*
%TD*%
D17*
%TO.N,/CPU_D11*%
X62218700Y-62348800D03*
X96559300Y-118411800D03*
X92975200Y-123462800D03*
%TO.N,/CPU_D13*%
X64927600Y-66099300D03*
X95297200Y-119250800D03*
X89166500Y-126725400D03*
%TO.N,/CPU_D1*%
X57106900Y-55059200D03*
%TO.N,GND*%
X81166000Y-130659400D03*
%TO.N,/CLK*%
X67034500Y-131538600D03*
%TO.N,/D1*%
X96434700Y-129249500D03*
%TO.N,/~CPU_UDS*%
X64008800Y-72557000D03*
%TO.N,/CPU_A10*%
X91817200Y-95860000D03*
%TO.N,/~CPU_LDS*%
X60362500Y-71726300D03*
%TO.N,/~CPU_DTACK*%
X56039100Y-73892000D03*
%TO.N,/~CPU_BERR*%
X100204000Y-106157600D03*
%TO.N,+5V*%
X103673200Y-123141500D03*
%TO.N,/BUS_A4*%
X110683000Y-124933000D03*
%TD*%
D18*
%TO.N,/CPU_D11*%
X96559300Y-119878700D02*
X92975200Y-123462800D01*
X96559300Y-118411800D02*
X96559300Y-119878700D01*
X61109900Y-61240000D02*
X62218700Y-62348800D01*
X53400000Y-61240000D02*
X61109900Y-61240000D01*
%TO.N,/CPU_D13*%
X89166500Y-125381500D02*
X95297200Y-119250800D01*
X89166500Y-126725400D02*
X89166500Y-125381500D01*
X64706900Y-66320000D02*
X64927600Y-66099300D01*
X53400000Y-66320000D02*
X64706900Y-66320000D01*
%TO.N,/CPU_D1*%
X54523800Y-52476100D02*
X57106900Y-55059200D01*
X30269200Y-52476100D02*
X54523800Y-52476100D01*
X29125300Y-53620000D02*
X30269200Y-52476100D01*
X28000000Y-53620000D02*
X29125300Y-53620000D01*
%TO.N,GND*%
X53400000Y-73940000D02*
X54525300Y-73940000D01*
X55674500Y-75190000D02*
X60190000Y-75190000D01*
X54525300Y-74040800D02*
X55674500Y-75190000D01*
X54525300Y-73940000D02*
X54525300Y-74040800D01*
X82160100Y-131653500D02*
X81166000Y-130659400D01*
X82160100Y-132682600D02*
X82160100Y-131653500D01*
X83212900Y-133735400D02*
X82160100Y-132682600D01*
X83594100Y-133735400D02*
X83212900Y-133735400D01*
X84430400Y-134571700D02*
X83594100Y-133735400D01*
X84430400Y-134941900D02*
X84430400Y-134571700D01*
X85516400Y-136027900D02*
X84430400Y-134941900D01*
X85887700Y-136027900D02*
X85516400Y-136027900D01*
X86970400Y-137110600D02*
X85887700Y-136027900D01*
X86970400Y-137480300D02*
X86970400Y-137110600D01*
X88581200Y-139091100D02*
X86970400Y-137480300D01*
X104766400Y-139091100D02*
X88581200Y-139091100D01*
X106290000Y-137567500D02*
X104766400Y-139091100D01*
%TO.N,/CLK*%
X106848500Y-139549000D02*
X108830000Y-137567500D01*
X78905500Y-139549000D02*
X106848500Y-139549000D01*
X76823900Y-137467400D02*
X78905500Y-139549000D01*
X76823900Y-137137400D02*
X76823900Y-137467400D01*
X75714400Y-136027900D02*
X76823900Y-137137400D01*
X72809800Y-136027900D02*
X75714400Y-136027900D01*
X72000000Y-135218100D02*
X72809800Y-136027900D01*
X72000000Y-134849900D02*
X72000000Y-135218100D01*
X71105600Y-133955500D02*
X72000000Y-134849900D01*
X68174200Y-133955500D02*
X71105600Y-133955500D01*
X67034500Y-132815800D02*
X68174200Y-133955500D01*
X67034500Y-131538600D02*
X67034500Y-132815800D01*
%TO.N,/~BR*%
X28000000Y-76480000D02*
X28000000Y-77605300D01*
X27718700Y-77605300D02*
X28000000Y-77605300D01*
X26397500Y-78926500D02*
X27718700Y-77605300D01*
X26397500Y-125382700D02*
X26397500Y-78926500D01*
X30966700Y-129951900D02*
X26397500Y-125382700D01*
X36618400Y-129951900D02*
X30966700Y-129951900D01*
X39249700Y-132583200D02*
X36618400Y-129951900D01*
X39249700Y-132950300D02*
X39249700Y-132583200D01*
X40056900Y-133757500D02*
X39249700Y-132950300D01*
X41520000Y-133757500D02*
X40056900Y-133757500D01*
X42790000Y-135027500D02*
X41520000Y-133757500D01*
%TO.N,/~BGACK*%
X36440000Y-133757500D02*
X37710000Y-135027500D01*
X34976900Y-133757500D02*
X36440000Y-133757500D01*
X34169700Y-132950300D02*
X34976900Y-133757500D01*
X34169700Y-132583200D02*
X34169700Y-132950300D01*
X31988800Y-130402300D02*
X34169700Y-132583200D01*
X30763200Y-130402300D02*
X31988800Y-130402300D01*
X25935700Y-125574800D02*
X30763200Y-130402300D01*
X25935700Y-76848300D02*
X25935700Y-125574800D01*
X27718700Y-75065300D02*
X25935700Y-76848300D01*
X28000000Y-75065300D02*
X27718700Y-75065300D01*
X28000000Y-73940000D02*
X28000000Y-75065300D01*
%TO.N,/~BG*%
X39232300Y-136045200D02*
X40250000Y-135027500D01*
X34724600Y-136045200D02*
X39232300Y-136045200D01*
X34169600Y-135490200D02*
X34724600Y-136045200D01*
X34169600Y-135123100D02*
X34169600Y-135490200D01*
X32644600Y-133598100D02*
X34169600Y-135123100D01*
X32326000Y-133598100D02*
X32644600Y-133598100D01*
X25418700Y-126690800D02*
X32326000Y-133598100D01*
X25418700Y-74825300D02*
X25418700Y-126690800D01*
X27718700Y-72525300D02*
X25418700Y-74825300D01*
X28000000Y-72525300D02*
X27718700Y-72525300D01*
X28000000Y-71400000D02*
X28000000Y-72525300D01*
%TO.N,/D1*%
X94632900Y-131051300D02*
X96434700Y-129249500D01*
X94632900Y-133148200D02*
X94632900Y-131051300D01*
X95469300Y-133984600D02*
X94632900Y-133148200D01*
X96544700Y-133984600D02*
X95469300Y-133984600D01*
X97360000Y-134799900D02*
X96544700Y-133984600D01*
X97360000Y-135169500D02*
X97360000Y-134799900D01*
X98240500Y-136050000D02*
X97360000Y-135169500D01*
X98583100Y-136050000D02*
X98240500Y-136050000D01*
X100209600Y-137676500D02*
X98583100Y-136050000D01*
X100209600Y-138048700D02*
X100209600Y-137676500D01*
X100801600Y-138640700D02*
X100209600Y-138048700D01*
X104165400Y-138640700D02*
X100801600Y-138640700D01*
X105020000Y-137786100D02*
X104165400Y-138640700D01*
X105020000Y-137390400D02*
X105020000Y-137786100D01*
X105843300Y-136567100D02*
X105020000Y-137390400D01*
X109830400Y-136567100D02*
X105843300Y-136567100D01*
X111370000Y-135027500D02*
X109830400Y-136567100D01*
%TO.N,/CPU_A18*%
X53400000Y-91720000D02*
X54525300Y-91720000D01*
X94349400Y-90449400D02*
X95540000Y-91640000D01*
X56432700Y-90449400D02*
X94349400Y-90449400D01*
X55162100Y-91720000D02*
X56432700Y-90449400D01*
X54525300Y-91720000D02*
X55162100Y-91720000D01*
%TO.N,/CPU_A17*%
X57145300Y-91640000D02*
X93000000Y-91640000D01*
X54525300Y-94260000D02*
X57145300Y-91640000D01*
X53400000Y-94260000D02*
X54525300Y-94260000D01*
%TO.N,/CPU_A19*%
X53400000Y-89180000D02*
X54525300Y-89180000D01*
X94349400Y-87909400D02*
X95540000Y-89100000D01*
X55795900Y-87909400D02*
X94349400Y-87909400D01*
X54525300Y-89180000D02*
X55795900Y-87909400D01*
%TO.N,/CPU_A16*%
X56827000Y-89100000D02*
X93000000Y-89100000D01*
X55609700Y-90317300D02*
X56827000Y-89100000D01*
X53203500Y-90317300D02*
X55609700Y-90317300D01*
X52271700Y-91249100D02*
X53203500Y-90317300D01*
X52271700Y-94827700D02*
X52271700Y-91249100D01*
X53118700Y-95674700D02*
X52271700Y-94827700D01*
X53400000Y-95674700D02*
X53118700Y-95674700D01*
X53400000Y-96800000D02*
X53400000Y-95674700D01*
%TO.N,/CPU_A20*%
X94349400Y-85369400D02*
X95540000Y-86560000D01*
X55795900Y-85369400D02*
X94349400Y-85369400D01*
X54525300Y-86640000D02*
X55795900Y-85369400D01*
X53400000Y-86640000D02*
X54525300Y-86640000D01*
%TO.N,/CPU_A15*%
X53118700Y-98214700D02*
X53400000Y-98214700D01*
X51810100Y-96906100D02*
X53118700Y-98214700D01*
X51810100Y-89145800D02*
X51810100Y-96906100D01*
X53045900Y-87910000D02*
X51810100Y-89145800D01*
X54983700Y-87910000D02*
X53045900Y-87910000D01*
X56333700Y-86560000D02*
X54983700Y-87910000D01*
X93000000Y-86560000D02*
X56333700Y-86560000D01*
X53400000Y-99340000D02*
X53400000Y-98214700D01*
%TO.N,/CPU_A21*%
X79562000Y-81560000D02*
X54525300Y-81560000D01*
X80752000Y-82750000D02*
X79562000Y-81560000D01*
X94270000Y-82750000D02*
X80752000Y-82750000D01*
X95540000Y-84020000D02*
X94270000Y-82750000D01*
X53400000Y-81560000D02*
X54525300Y-81560000D01*
%TO.N,/CPU_A14*%
X53118600Y-100754700D02*
X53400000Y-100754700D01*
X51345600Y-98981700D02*
X53118600Y-100754700D01*
X51345600Y-87086400D02*
X51345600Y-98981700D01*
X53062000Y-85370000D02*
X51345600Y-87086400D01*
X54074400Y-85370000D02*
X53062000Y-85370000D01*
X54894000Y-84550400D02*
X54074400Y-85370000D01*
X92469600Y-84550400D02*
X54894000Y-84550400D01*
X93000000Y-84020000D02*
X92469600Y-84550400D01*
X53400000Y-101880000D02*
X53400000Y-100754700D01*
%TO.N,/CPU_A22*%
X94205300Y-80145300D02*
X95540000Y-81480000D01*
X55650600Y-80145300D02*
X94205300Y-80145300D01*
X54525300Y-79020000D02*
X55650600Y-80145300D01*
X53400000Y-79020000D02*
X54525300Y-79020000D01*
%TO.N,/CPU_A13*%
X53400000Y-104420000D02*
X54525300Y-104420000D01*
X64766300Y-94179000D02*
X54525300Y-104420000D01*
X94681900Y-94179000D02*
X64766300Y-94179000D01*
X96722300Y-92138600D02*
X94681900Y-94179000D01*
X96722300Y-83517700D02*
X96722300Y-92138600D01*
X95954600Y-82750000D02*
X96722300Y-83517700D01*
X95027300Y-82750000D02*
X95954600Y-82750000D01*
X93757300Y-81480000D02*
X95027300Y-82750000D01*
X93000000Y-81480000D02*
X93757300Y-81480000D01*
%TO.N,/CPU_A23*%
X53400000Y-76480000D02*
X54525300Y-76480000D01*
X94285600Y-77685600D02*
X95540000Y-78940000D01*
X55730900Y-77685600D02*
X94285600Y-77685600D01*
X54525300Y-76480000D02*
X55730900Y-77685600D01*
%TO.N,/CPU_A12*%
X53400000Y-106960000D02*
X54525300Y-106960000D01*
X66856000Y-94629300D02*
X54525300Y-106960000D01*
X94905600Y-94629300D02*
X66856000Y-94629300D01*
X97213100Y-92321800D02*
X94905600Y-94629300D01*
X97213100Y-81455600D02*
X97213100Y-92321800D01*
X96062100Y-80304600D02*
X97213100Y-81455600D01*
X95005900Y-80304600D02*
X96062100Y-80304600D01*
X93641300Y-78940000D02*
X95005900Y-80304600D01*
X93000000Y-78940000D02*
X93641300Y-78940000D01*
%TO.N,/~CPU_AS*%
X48738200Y-128854800D02*
X51944000Y-132060600D01*
X30523300Y-128854800D02*
X48738200Y-128854800D01*
X26849600Y-125181100D02*
X30523300Y-128854800D01*
X26849600Y-81040200D02*
X26849600Y-125181100D01*
X27599800Y-80290000D02*
X26849600Y-81040200D01*
X28325100Y-80290000D02*
X27599800Y-80290000D01*
X29176000Y-79439100D02*
X28325100Y-80290000D01*
X29176000Y-60720000D02*
X29176000Y-79439100D01*
X28281300Y-59825300D02*
X29176000Y-60720000D01*
X28000000Y-59825300D02*
X28281300Y-59825300D01*
X86174400Y-97830200D02*
X51944000Y-132060600D01*
X93028700Y-97830200D02*
X86174400Y-97830200D01*
X98168800Y-92690100D02*
X93028700Y-97830200D01*
X98168800Y-79028800D02*
X98168800Y-92690100D01*
X95540000Y-76400000D02*
X98168800Y-79028800D01*
X66650400Y-136567100D02*
X68190000Y-135027500D01*
X53063900Y-136567100D02*
X66650400Y-136567100D01*
X51944000Y-135447200D02*
X53063900Y-136567100D01*
X51944000Y-132060600D02*
X51944000Y-135447200D01*
X28000000Y-58700000D02*
X28000000Y-59825300D01*
%TO.N,/CPU_A11*%
X53400000Y-109500000D02*
X54525300Y-109500000D01*
X68945700Y-95079600D02*
X54525300Y-109500000D01*
X95096600Y-95079600D02*
X68945700Y-95079600D01*
X97708200Y-92468000D02*
X95096600Y-95079600D01*
X97708200Y-80328100D02*
X97708200Y-92468000D01*
X93780100Y-76400000D02*
X97708200Y-80328100D01*
X93000000Y-76400000D02*
X93780100Y-76400000D01*
%TO.N,/~CPU_UDS*%
X94237000Y-72557000D02*
X64008800Y-72557000D01*
X95540000Y-73860000D02*
X94237000Y-72557000D01*
X98619200Y-76939200D02*
X95540000Y-73860000D01*
X98619200Y-92876700D02*
X98619200Y-76939200D01*
X85626000Y-105869900D02*
X98619200Y-92876700D01*
X80008200Y-105869900D02*
X85626000Y-105869900D01*
X54011400Y-131866700D02*
X80008200Y-105869900D01*
X54011400Y-134968800D02*
X54011400Y-131866700D01*
X55119000Y-136076400D02*
X54011400Y-134968800D01*
X64601100Y-136076400D02*
X55119000Y-136076400D01*
X65650000Y-135027500D02*
X64601100Y-136076400D01*
%TO.N,/CPU_A10*%
X53400000Y-112040000D02*
X54525300Y-112040000D01*
X70705300Y-95860000D02*
X91817200Y-95860000D01*
X54525300Y-112040000D02*
X70705300Y-95860000D01*
%TO.N,/~CPU_LDS*%
X99082300Y-74862300D02*
X95540000Y-71320000D01*
X99082300Y-93074000D02*
X99082300Y-74862300D01*
X83940600Y-108215700D02*
X99082300Y-93074000D01*
X78347200Y-108215700D02*
X83940600Y-108215700D01*
X54461700Y-132101200D02*
X78347200Y-108215700D01*
X54461700Y-132941100D02*
X54461700Y-132101200D01*
X55458900Y-133938300D02*
X54461700Y-132941100D01*
X62020800Y-133938300D02*
X55458900Y-133938300D01*
X63110000Y-135027500D02*
X62020800Y-133938300D01*
X94364600Y-70144600D02*
X95540000Y-71320000D01*
X61944200Y-70144600D02*
X94364600Y-70144600D01*
X60362500Y-71726300D02*
X61944200Y-70144600D01*
%TO.N,/CPU_A9*%
X53400000Y-114580000D02*
X53400000Y-113454700D01*
X64219500Y-71320000D02*
X93000000Y-71320000D01*
X62553800Y-72985700D02*
X64219500Y-71320000D01*
X62553800Y-74442500D02*
X62553800Y-72985700D01*
X61184700Y-75811600D02*
X62553800Y-74442500D01*
X55659200Y-75811600D02*
X61184700Y-75811600D01*
X55155400Y-75307800D02*
X55659200Y-75811600D01*
X52959500Y-75307800D02*
X55155400Y-75307800D01*
X50870500Y-77396800D02*
X52959500Y-75307800D01*
X50870500Y-111206500D02*
X50870500Y-77396800D01*
X53118700Y-113454700D02*
X50870500Y-111206500D01*
X53400000Y-113454700D02*
X53118700Y-113454700D01*
%TO.N,/CPU_A8*%
X53400000Y-117120000D02*
X53400000Y-115994700D01*
X53118600Y-115994700D02*
X53400000Y-115994700D01*
X50420100Y-113296200D02*
X53118600Y-115994700D01*
X50420100Y-75275700D02*
X50420100Y-113296200D01*
X52911100Y-72784700D02*
X50420100Y-75275700D01*
X54006900Y-72784700D02*
X52911100Y-72784700D01*
X55313800Y-74091600D02*
X54006900Y-72784700D01*
X55313800Y-74192400D02*
X55313800Y-74091600D01*
X55685600Y-74564200D02*
X55313800Y-74192400D01*
X56496400Y-74564200D02*
X55685600Y-74564200D01*
X61373500Y-69687100D02*
X56496400Y-74564200D01*
X92092900Y-69687100D02*
X61373500Y-69687100D01*
X93000000Y-68780000D02*
X92092900Y-69687100D01*
%TO.N,/~CPU_DTACK*%
X56122400Y-73892000D02*
X56039100Y-73892000D01*
X61204500Y-68809900D02*
X56122400Y-73892000D01*
X91067000Y-68809900D02*
X61204500Y-68809900D01*
X92461500Y-67415400D02*
X91067000Y-68809900D01*
X94364600Y-67415400D02*
X92461500Y-67415400D01*
X95540000Y-66240000D02*
X94364600Y-67415400D01*
%TO.N,/CPU_A7*%
X53400000Y-119660000D02*
X53400000Y-118534700D01*
X90935000Y-68305000D02*
X93000000Y-66240000D01*
X61072400Y-68305000D02*
X90935000Y-68305000D01*
X59301900Y-70075500D02*
X61072400Y-68305000D01*
X53100300Y-70075500D02*
X59301900Y-70075500D01*
X49969800Y-73206000D02*
X53100300Y-70075500D01*
X49969800Y-115309000D02*
X49969800Y-73206000D01*
X53195500Y-118534700D02*
X49969800Y-115309000D01*
X53400000Y-118534700D02*
X53195500Y-118534700D01*
%TO.N,/~CPU_BERR*%
X74787500Y-131574100D02*
X100204000Y-106157600D01*
X74787500Y-133510000D02*
X74787500Y-131574100D01*
X73270000Y-135027500D02*
X74787500Y-133510000D01*
X99295100Y-59944900D02*
X95540000Y-63700000D01*
X106559600Y-59944900D02*
X99295100Y-59944900D01*
X109044700Y-62430000D02*
X106559600Y-59944900D01*
X114270000Y-62430000D02*
X109044700Y-62430000D01*
X115540000Y-63700000D02*
X114270000Y-62430000D01*
%TO.N,/CPU_A6*%
X53400000Y-122200000D02*
X53400000Y-121074700D01*
X89110000Y-67590000D02*
X93000000Y-63700000D01*
X54172900Y-67590000D02*
X89110000Y-67590000D01*
X49519400Y-72243500D02*
X54172900Y-67590000D01*
X49519400Y-117398600D02*
X49519400Y-72243500D01*
X53195500Y-121074700D02*
X49519400Y-117398600D01*
X53400000Y-121074700D02*
X53195500Y-121074700D01*
%TO.N,/CPU_A5*%
X53118700Y-123614700D02*
X53400000Y-123614700D01*
X49069000Y-119565000D02*
X53118700Y-123614700D01*
X49069000Y-69041900D02*
X49069000Y-119565000D01*
X53060900Y-65050000D02*
X49069000Y-69041900D01*
X89110000Y-65050000D02*
X53060900Y-65050000D01*
X93000000Y-61160000D02*
X89110000Y-65050000D01*
X53400000Y-124740000D02*
X53400000Y-123614700D01*
%TO.N,/CPU_A4*%
X94190600Y-57429400D02*
X93000000Y-58620000D01*
X111809400Y-57429400D02*
X94190600Y-57429400D01*
X113000000Y-58620000D02*
X111809400Y-57429400D01*
X28000000Y-124740000D02*
X28000000Y-123614700D01*
X88497400Y-63122600D02*
X93000000Y-58620000D01*
X54418500Y-63122600D02*
X88497400Y-63122600D01*
X54177000Y-62881100D02*
X54418500Y-63122600D01*
X54073600Y-62881100D02*
X54177000Y-62881100D01*
X35024300Y-81930400D02*
X54073600Y-62881100D01*
X35024300Y-116871700D02*
X35024300Y-81930400D01*
X28281300Y-123614700D02*
X35024300Y-116871700D01*
X28000000Y-123614700D02*
X28281300Y-123614700D01*
%TO.N,/CPU_A3*%
X94190600Y-54889400D02*
X93000000Y-56080000D01*
X111809400Y-54889400D02*
X94190600Y-54889400D01*
X113000000Y-56080000D02*
X111809400Y-54889400D01*
X28000000Y-122200000D02*
X28000000Y-121074700D01*
X89110000Y-59970000D02*
X93000000Y-56080000D01*
X53076600Y-59970000D02*
X89110000Y-59970000D01*
X34573900Y-78472700D02*
X53076600Y-59970000D01*
X34573900Y-114782100D02*
X34573900Y-78472700D01*
X28281300Y-121074700D02*
X34573900Y-114782100D01*
X28000000Y-121074700D02*
X28281300Y-121074700D01*
%TO.N,/CPU_A2*%
X28281300Y-118534700D02*
X28000000Y-118534700D01*
X30388700Y-116427300D02*
X28281300Y-118534700D01*
X30388700Y-80065000D02*
X30388700Y-116427300D01*
X53023700Y-57430000D02*
X30388700Y-80065000D01*
X89110000Y-57430000D02*
X53023700Y-57430000D01*
X93000000Y-53540000D02*
X89110000Y-57430000D01*
X28000000Y-119660000D02*
X28000000Y-118534700D01*
%TO.N,/CPU_A1*%
X28000000Y-117120000D02*
X28000000Y-115994700D01*
X28281300Y-115994700D02*
X28000000Y-115994700D01*
X29698700Y-114577300D02*
X28281300Y-115994700D01*
X29698700Y-78263200D02*
X29698700Y-114577300D01*
X52935000Y-55026900D02*
X29698700Y-78263200D01*
X56048900Y-55026900D02*
X52935000Y-55026900D01*
X56806500Y-55784500D02*
X56048900Y-55026900D01*
X88215500Y-55784500D02*
X56806500Y-55784500D01*
X93000000Y-51000000D02*
X88215500Y-55784500D01*
%TO.N,/BUS_A18*%
X69207600Y-133505100D02*
X68190000Y-132487500D01*
X73705200Y-133505100D02*
X69207600Y-133505100D01*
X74314900Y-132895400D02*
X73705200Y-133505100D01*
X74314900Y-131011400D02*
X74314900Y-132895400D01*
X105540000Y-99786300D02*
X74314900Y-131011400D01*
X105540000Y-91640000D02*
X105540000Y-99786300D01*
%TO.N,/BUS_A17*%
X70730000Y-128098900D02*
X70730000Y-132487500D01*
X103000000Y-95828900D02*
X70730000Y-128098900D01*
X103000000Y-91640000D02*
X103000000Y-95828900D01*
%TO.N,/BUS_A19*%
X65650000Y-131897400D02*
X65650000Y-132487500D01*
X101824600Y-95722800D02*
X65650000Y-131897400D01*
X101824600Y-91150500D02*
X101824600Y-95722800D01*
X102570700Y-90404400D02*
X101824600Y-91150500D01*
X104235600Y-90404400D02*
X102570700Y-90404400D01*
X105540000Y-89100000D02*
X104235600Y-90404400D01*
%TO.N,/BUS_A16*%
X73270000Y-130051200D02*
X73270000Y-132487500D01*
X104270000Y-99051200D02*
X73270000Y-130051200D01*
X104270000Y-91230600D02*
X104270000Y-99051200D01*
X105225200Y-90275400D02*
X104270000Y-91230600D01*
X106083600Y-90275400D02*
X105225200Y-90275400D01*
X106755500Y-89603500D02*
X106083600Y-90275400D01*
X106755500Y-88649400D02*
X106755500Y-89603500D01*
X106023500Y-87917400D02*
X106755500Y-88649400D01*
X104819500Y-87917400D02*
X106023500Y-87917400D01*
X103636900Y-89100000D02*
X104819500Y-87917400D01*
X103000000Y-89100000D02*
X103636900Y-89100000D01*
%TO.N,/BUS_A20*%
X101374200Y-94223300D02*
X63110000Y-132487500D01*
X101374200Y-89057200D02*
X101374200Y-94223300D01*
X102601400Y-87830000D02*
X101374200Y-89057200D01*
X104270000Y-87830000D02*
X102601400Y-87830000D01*
X105540000Y-86560000D02*
X104270000Y-87830000D01*
%TO.N,/BUS_A15*%
X107208200Y-101089300D02*
X75810000Y-132487500D01*
X107208200Y-86558000D02*
X107208200Y-101089300D01*
X105990500Y-85340300D02*
X107208200Y-86558000D01*
X104219700Y-85340300D02*
X105990500Y-85340300D01*
X103000000Y-86560000D02*
X104219700Y-85340300D01*
%TO.N,/BUS_A21*%
X104903100Y-84020000D02*
X105540000Y-84020000D01*
X103633100Y-85290000D02*
X104903100Y-84020000D01*
X102559800Y-85290000D02*
X103633100Y-85290000D01*
X100860300Y-86989500D02*
X102559800Y-85290000D01*
X100860300Y-93216500D02*
X100860300Y-86989500D01*
X61589300Y-132487500D02*
X100860300Y-93216500D01*
X60570000Y-132487500D02*
X61589300Y-132487500D01*
%TO.N,/BUS_A14*%
X78350000Y-130924500D02*
X78350000Y-132487500D01*
X107658600Y-101615900D02*
X78350000Y-130924500D01*
X107658600Y-84460400D02*
X107658600Y-101615900D01*
X106002900Y-82804700D02*
X107658600Y-84460400D01*
X104215300Y-82804700D02*
X106002900Y-82804700D01*
X103000000Y-84020000D02*
X104215300Y-82804700D01*
%TO.N,/BUS_A22*%
X60183800Y-130333700D02*
X58030000Y-132487500D01*
X63106200Y-130333700D02*
X60183800Y-130333700D01*
X100409900Y-93030000D02*
X63106200Y-130333700D01*
X100409900Y-84842900D02*
X100409900Y-93030000D01*
X102502800Y-82750000D02*
X100409900Y-84842900D01*
X103633100Y-82750000D02*
X102502800Y-82750000D01*
X104903100Y-81480000D02*
X103633100Y-82750000D01*
X105540000Y-81480000D02*
X104903100Y-81480000D01*
%TO.N,/BUS_A13*%
X80440700Y-132038200D02*
X80890000Y-132487500D01*
X80440700Y-129722100D02*
X80440700Y-132038200D01*
X108109000Y-102053800D02*
X80440700Y-129722100D01*
X108109000Y-82386700D02*
X108109000Y-102053800D01*
X106301800Y-80579500D02*
X108109000Y-82386700D01*
X103900500Y-80579500D02*
X106301800Y-80579500D01*
X103000000Y-81480000D02*
X103900500Y-80579500D01*
%TO.N,/BUS_A23*%
X62842500Y-125135000D02*
X55490000Y-132487500D01*
X67658200Y-125135000D02*
X62842500Y-125135000D01*
X99782900Y-93010300D02*
X67658200Y-125135000D01*
X99782900Y-83856500D02*
X99782900Y-93010300D01*
X104699400Y-78940000D02*
X99782900Y-83856500D01*
X105540000Y-78940000D02*
X104699400Y-78940000D01*
%TO.N,/BUS_A12*%
X83430000Y-128468800D02*
X83430000Y-132487500D01*
X108559400Y-103339400D02*
X83430000Y-128468800D01*
X108559400Y-80292500D02*
X108559400Y-103339400D01*
X106614500Y-78347600D02*
X108559400Y-80292500D01*
X103592400Y-78347600D02*
X106614500Y-78347600D01*
X103000000Y-78940000D02*
X103592400Y-78347600D01*
%TO.N,/BUS_A11*%
X109061300Y-109396200D02*
X85970000Y-132487500D01*
X109061300Y-80127900D02*
X109061300Y-109396200D01*
X106522600Y-77589200D02*
X109061300Y-80127900D01*
X104189200Y-77589200D02*
X106522600Y-77589200D01*
X103000000Y-76400000D02*
X104189200Y-77589200D01*
%TO.N,/BUS_A10*%
X104218100Y-75078100D02*
X103000000Y-73860000D01*
X105881200Y-75078100D02*
X104218100Y-75078100D01*
X109511600Y-78708500D02*
X105881200Y-75078100D01*
X109511600Y-111485900D02*
X109511600Y-78708500D01*
X88510000Y-132487500D02*
X109511600Y-111485900D01*
%TO.N,/BUS_A9*%
X104270000Y-72590000D02*
X103000000Y-71320000D01*
X105943600Y-72590000D02*
X104270000Y-72590000D01*
X109961900Y-76608300D02*
X105943600Y-72590000D01*
X109961900Y-113575600D02*
X109961900Y-76608300D01*
X91050000Y-132487500D02*
X109961900Y-113575600D01*
%TO.N,/BUS_A8*%
X104270000Y-70050000D02*
X103000000Y-68780000D01*
X105936300Y-70050000D02*
X104270000Y-70050000D01*
X110412200Y-74525900D02*
X105936300Y-70050000D01*
X110412200Y-114246300D02*
X110412200Y-74525900D01*
X93590000Y-131068500D02*
X110412200Y-114246300D01*
X93590000Y-132487500D02*
X93590000Y-131068500D01*
%TO.N,/BUS_A7*%
X103832500Y-66240000D02*
X103000000Y-66240000D01*
X110862500Y-73270000D02*
X103832500Y-66240000D01*
X110862500Y-117755000D02*
X110862500Y-73270000D01*
X96130000Y-132487500D02*
X110862500Y-117755000D01*
%TO.N,/BUS_A6*%
X104270000Y-64970000D02*
X103000000Y-63700000D01*
X105946000Y-64970000D02*
X104270000Y-64970000D01*
X111312800Y-70336800D02*
X105946000Y-64970000D01*
X111312800Y-119844700D02*
X111312800Y-70336800D01*
X98670000Y-132487500D02*
X111312800Y-119844700D01*
%TO.N,+5V*%
X66520000Y-84100000D02*
X53400000Y-84100000D01*
X67810000Y-82810000D02*
X66520000Y-84100000D01*
X95083300Y-131731400D02*
X103673200Y-123141500D01*
X95083300Y-132890500D02*
X95083300Y-131731400D01*
X95727000Y-133534200D02*
X95083300Y-132890500D01*
X102210400Y-133534200D02*
X95727000Y-133534200D01*
X102210400Y-136027900D02*
X102210400Y-133534200D01*
X103750000Y-137567500D02*
X102210400Y-136027900D01*
X102210400Y-132124000D02*
X102210400Y-133534200D01*
X114180800Y-120153600D02*
X102210400Y-132124000D01*
X114180800Y-68229500D02*
X114180800Y-120153600D01*
X113555900Y-67604600D02*
X114180800Y-68229500D01*
X111984600Y-67604600D02*
X113555900Y-67604600D01*
X105540000Y-61160000D02*
X111984600Y-67604600D01*
%TO.N,/BUS_A5*%
X111763100Y-69923100D02*
X103000000Y-61160000D01*
X111763100Y-121934400D02*
X111763100Y-69923100D01*
X101210000Y-132487500D02*
X111763100Y-121934400D01*
%TO.N,/BUS_A4*%
X110683000Y-125554500D02*
X103750000Y-132487500D01*
X110683000Y-124933000D02*
X110683000Y-125554500D01*
%TO.N,/BUS_A1*%
X116722700Y-126134500D02*
X111370000Y-131487200D01*
X116722700Y-60600000D02*
X116722700Y-126134500D01*
X116012700Y-59890000D02*
X116722700Y-60600000D01*
X115109000Y-59890000D02*
X116012700Y-59890000D01*
X114364600Y-59145600D02*
X115109000Y-59890000D01*
X114364600Y-53171100D02*
X114364600Y-59145600D01*
X113464000Y-52270500D02*
X114364600Y-53171100D01*
X104270500Y-52270500D02*
X113464000Y-52270500D01*
X103000000Y-51000000D02*
X104270500Y-52270500D01*
X111370000Y-132487500D02*
X111370000Y-131487200D01*
%TD*%
M02*
