%TF.GenerationSoftware,KiCad,Pcbnew,(6.0.4)*%
%TF.CreationDate,2022-05-02T09:06:27-05:00*%
%TF.ProjectId,cpu_board,6370755f-626f-4617-9264-2e6b69636164,rev?*%
%TF.SameCoordinates,Original*%
%TF.FileFunction,Soldermask,Top*%
%TF.FilePolarity,Negative*%
%FSLAX46Y46*%
G04 Gerber Fmt 4.6, Leading zero omitted, Abs format (unit mm)*
G04 Created by KiCad (PCBNEW (6.0.4)) date 2022-05-02 09:06:27*
%MOMM*%
%LPD*%
G01*
G04 APERTURE LIST*
G04 Aperture macros list*
%AMRoundRect*
0 Rectangle with rounded corners*
0 $1 Rounding radius*
0 $2 $3 $4 $5 $6 $7 $8 $9 X,Y pos of 4 corners*
0 Add a 4 corners polygon primitive as box body*
4,1,4,$2,$3,$4,$5,$6,$7,$8,$9,$2,$3,0*
0 Add four circle primitives for the rounded corners*
1,1,$1+$1,$2,$3*
1,1,$1+$1,$4,$5*
1,1,$1+$1,$6,$7*
1,1,$1+$1,$8,$9*
0 Add four rect primitives between the rounded corners*
20,1,$1+$1,$2,$3,$4,$5,0*
20,1,$1+$1,$4,$5,$6,$7,0*
20,1,$1+$1,$6,$7,$8,$9,0*
20,1,$1+$1,$8,$9,$2,$3,0*%
G04 Aperture macros list end*
%ADD10RoundRect,0.100000X-0.637500X-0.100000X0.637500X-0.100000X0.637500X0.100000X-0.637500X0.100000X0*%
%ADD11R,1.600000X1.600000*%
%ADD12C,1.600000*%
%ADD13RoundRect,0.250000X-0.600000X-0.600000X0.600000X-0.600000X0.600000X0.600000X-0.600000X0.600000X0*%
%ADD14C,1.700000*%
%ADD15C,2.790000*%
%ADD16R,1.350000X1.350000*%
%ADD17C,1.350000*%
%ADD18O,1.600000X1.600000*%
G04 APERTURE END LIST*
D10*
%TO.C,U3*%
X81137500Y-122075000D03*
X81137500Y-122725000D03*
X81137500Y-123375000D03*
X81137500Y-124025000D03*
X81137500Y-124675000D03*
X81137500Y-125325000D03*
X81137500Y-125975000D03*
X81137500Y-126625000D03*
X81137500Y-127275000D03*
X81137500Y-127925000D03*
X86862500Y-127925000D03*
X86862500Y-127275000D03*
X86862500Y-126625000D03*
X86862500Y-125975000D03*
X86862500Y-125325000D03*
X86862500Y-124675000D03*
X86862500Y-124025000D03*
X86862500Y-123375000D03*
X86862500Y-122725000D03*
X86862500Y-122075000D03*
%TD*%
%TO.C,U2*%
X100137500Y-122075000D03*
X100137500Y-122725000D03*
X100137500Y-123375000D03*
X100137500Y-124025000D03*
X100137500Y-124675000D03*
X100137500Y-125325000D03*
X100137500Y-125975000D03*
X100137500Y-126625000D03*
X100137500Y-127275000D03*
X100137500Y-127925000D03*
X105862500Y-127925000D03*
X105862500Y-127275000D03*
X105862500Y-126625000D03*
X105862500Y-125975000D03*
X105862500Y-125325000D03*
X105862500Y-124675000D03*
X105862500Y-124025000D03*
X105862500Y-123375000D03*
X105862500Y-122725000D03*
X105862500Y-122075000D03*
%TD*%
D11*
%TO.C,X1*%
X67810000Y-75190000D03*
D12*
X60190000Y-75190000D03*
X60190000Y-82810000D03*
X67810000Y-82810000D03*
%TD*%
D13*
%TO.C,J2*%
X93000000Y-51000000D03*
D14*
X95540000Y-51000000D03*
X93000000Y-53540000D03*
X95540000Y-53540000D03*
X93000000Y-56080000D03*
X95540000Y-56080000D03*
X93000000Y-58620000D03*
X95540000Y-58620000D03*
X93000000Y-61160000D03*
X95540000Y-61160000D03*
X93000000Y-63700000D03*
X95540000Y-63700000D03*
X93000000Y-66240000D03*
X95540000Y-66240000D03*
X93000000Y-68780000D03*
X95540000Y-68780000D03*
X93000000Y-71320000D03*
X95540000Y-71320000D03*
X93000000Y-73860000D03*
X95540000Y-73860000D03*
X93000000Y-76400000D03*
X95540000Y-76400000D03*
X93000000Y-78940000D03*
X95540000Y-78940000D03*
X93000000Y-81480000D03*
X95540000Y-81480000D03*
X93000000Y-84020000D03*
X95540000Y-84020000D03*
X93000000Y-86560000D03*
X95540000Y-86560000D03*
X93000000Y-89100000D03*
X95540000Y-89100000D03*
X93000000Y-91640000D03*
X95540000Y-91640000D03*
%TD*%
D15*
%TO.C,J4*%
X27550000Y-140107500D03*
X116450000Y-140107500D03*
D16*
X111370000Y-132487500D03*
D17*
X108830000Y-132487500D03*
X106290000Y-132487500D03*
X103750000Y-132487500D03*
X101210000Y-132487500D03*
X98670000Y-132487500D03*
X96130000Y-132487500D03*
X93590000Y-132487500D03*
X91050000Y-132487500D03*
X88510000Y-132487500D03*
X85970000Y-132487500D03*
X83430000Y-132487500D03*
X80890000Y-132487500D03*
X78350000Y-132487500D03*
X75810000Y-132487500D03*
X73270000Y-132487500D03*
X70730000Y-132487500D03*
X68190000Y-132487500D03*
X65650000Y-132487500D03*
X63110000Y-132487500D03*
X60570000Y-132487500D03*
X58030000Y-132487500D03*
X55490000Y-132487500D03*
X52950000Y-132487500D03*
X50410000Y-132487500D03*
X47870000Y-132487500D03*
X45330000Y-132487500D03*
X42790000Y-132487500D03*
X40250000Y-132487500D03*
X37710000Y-132487500D03*
X35170000Y-132487500D03*
X32630000Y-132487500D03*
X111370000Y-135027500D03*
X108830000Y-135027500D03*
X106290000Y-135027500D03*
X103750000Y-135027500D03*
X101210000Y-135027500D03*
X98670000Y-135027500D03*
X96130000Y-135027500D03*
X93590000Y-135027500D03*
X91050000Y-135027500D03*
X88510000Y-135027500D03*
X85970000Y-135027500D03*
X83430000Y-135027500D03*
X80890000Y-135027500D03*
X78350000Y-135027500D03*
X75810000Y-135027500D03*
X73270000Y-135027500D03*
X70730000Y-135027500D03*
X68190000Y-135027500D03*
X65650000Y-135027500D03*
X63110000Y-135027500D03*
X60570000Y-135027500D03*
X58030000Y-135027500D03*
X55490000Y-135027500D03*
X52950000Y-135027500D03*
X50410000Y-135027500D03*
X47870000Y-135027500D03*
X45330000Y-135027500D03*
X42790000Y-135027500D03*
X40250000Y-135027500D03*
X37710000Y-135027500D03*
X35170000Y-135027500D03*
X32630000Y-135027500D03*
X111370000Y-137567500D03*
X108830000Y-137567500D03*
X106290000Y-137567500D03*
X103750000Y-137567500D03*
X101210000Y-137567500D03*
X98670000Y-137567500D03*
X96130000Y-137567500D03*
X93590000Y-137567500D03*
X91050000Y-137567500D03*
X88510000Y-137567500D03*
X85970000Y-137567500D03*
X83430000Y-137567500D03*
X80890000Y-137567500D03*
X78350000Y-137567500D03*
X75810000Y-137567500D03*
X73270000Y-137567500D03*
X70730000Y-137567500D03*
X68190000Y-137567500D03*
X65650000Y-137567500D03*
X63110000Y-137567500D03*
X60570000Y-137567500D03*
X58030000Y-137567500D03*
X55490000Y-137567500D03*
X52950000Y-137567500D03*
X50410000Y-137567500D03*
X47870000Y-137567500D03*
X45330000Y-137567500D03*
X42790000Y-137567500D03*
X40250000Y-137567500D03*
X37710000Y-137567500D03*
X35170000Y-137567500D03*
X32630000Y-137567500D03*
%TD*%
D11*
%TO.C,U1*%
X28000000Y-46000000D03*
D18*
X28000000Y-48540000D03*
X28000000Y-51080000D03*
X28000000Y-53620000D03*
X28000000Y-56160000D03*
X28000000Y-58700000D03*
X28000000Y-61240000D03*
X28000000Y-63780000D03*
X28000000Y-66320000D03*
X28000000Y-68860000D03*
X28000000Y-71400000D03*
X28000000Y-73940000D03*
X28000000Y-76480000D03*
X28000000Y-79020000D03*
X28000000Y-81560000D03*
X28000000Y-84100000D03*
X28000000Y-86640000D03*
X28000000Y-89180000D03*
X28000000Y-91720000D03*
X28000000Y-94260000D03*
X28000000Y-96800000D03*
X28000000Y-99340000D03*
X28000000Y-101880000D03*
X28000000Y-104420000D03*
X28000000Y-106960000D03*
X28000000Y-109500000D03*
X28000000Y-112040000D03*
X28000000Y-114580000D03*
X28000000Y-117120000D03*
X28000000Y-119660000D03*
X28000000Y-122200000D03*
X28000000Y-124740000D03*
X53400000Y-124740000D03*
X53400000Y-122200000D03*
X53400000Y-119660000D03*
X53400000Y-117120000D03*
X53400000Y-114580000D03*
X53400000Y-112040000D03*
X53400000Y-109500000D03*
X53400000Y-106960000D03*
X53400000Y-104420000D03*
X53400000Y-101880000D03*
X53400000Y-99340000D03*
X53400000Y-96800000D03*
X53400000Y-94260000D03*
X53400000Y-91720000D03*
X53400000Y-89180000D03*
X53400000Y-86640000D03*
X53400000Y-84100000D03*
X53400000Y-81560000D03*
X53400000Y-79020000D03*
X53400000Y-76480000D03*
X53400000Y-73940000D03*
X53400000Y-71400000D03*
X53400000Y-68860000D03*
X53400000Y-66320000D03*
X53400000Y-63780000D03*
X53400000Y-61240000D03*
X53400000Y-58700000D03*
X53400000Y-56160000D03*
X53400000Y-53620000D03*
X53400000Y-51080000D03*
X53400000Y-48540000D03*
X53400000Y-46000000D03*
%TD*%
D13*
%TO.C,J1*%
X103000000Y-51000000D03*
D14*
X105540000Y-51000000D03*
X103000000Y-53540000D03*
X105540000Y-53540000D03*
X103000000Y-56080000D03*
X105540000Y-56080000D03*
X103000000Y-58620000D03*
X105540000Y-58620000D03*
X103000000Y-61160000D03*
X105540000Y-61160000D03*
X103000000Y-63700000D03*
X105540000Y-63700000D03*
X103000000Y-66240000D03*
X105540000Y-66240000D03*
X103000000Y-68780000D03*
X105540000Y-68780000D03*
X103000000Y-71320000D03*
X105540000Y-71320000D03*
X103000000Y-73860000D03*
X105540000Y-73860000D03*
X103000000Y-76400000D03*
X105540000Y-76400000D03*
X103000000Y-78940000D03*
X105540000Y-78940000D03*
X103000000Y-81480000D03*
X105540000Y-81480000D03*
X103000000Y-84020000D03*
X105540000Y-84020000D03*
X103000000Y-86560000D03*
X105540000Y-86560000D03*
X103000000Y-89100000D03*
X105540000Y-89100000D03*
X103000000Y-91640000D03*
X105540000Y-91640000D03*
%TD*%
D13*
%TO.C,J3*%
X113000000Y-51000000D03*
D14*
X115540000Y-51000000D03*
X113000000Y-53540000D03*
X115540000Y-53540000D03*
X113000000Y-56080000D03*
X115540000Y-56080000D03*
X113000000Y-58620000D03*
X115540000Y-58620000D03*
X113000000Y-61160000D03*
X115540000Y-61160000D03*
X113000000Y-63700000D03*
X115540000Y-63700000D03*
X113000000Y-66240000D03*
X115540000Y-66240000D03*
X113000000Y-68780000D03*
X115540000Y-68780000D03*
X113000000Y-71320000D03*
X115540000Y-71320000D03*
X113000000Y-73860000D03*
X115540000Y-73860000D03*
X113000000Y-76400000D03*
X115540000Y-76400000D03*
X113000000Y-78940000D03*
X115540000Y-78940000D03*
X113000000Y-81480000D03*
X115540000Y-81480000D03*
X113000000Y-84020000D03*
X115540000Y-84020000D03*
X113000000Y-86560000D03*
X115540000Y-86560000D03*
X113000000Y-89100000D03*
X115540000Y-89100000D03*
X113000000Y-91640000D03*
X115540000Y-91640000D03*
%TD*%
M02*
