%TF.GenerationSoftware,KiCad,Pcbnew,(6.0.4)*%
%TF.CreationDate,2022-05-02T09:06:26-05:00*%
%TF.ProjectId,cpu_board,6370755f-626f-4617-9264-2e6b69636164,rev?*%
%TF.SameCoordinates,Original*%
%TF.FileFunction,Copper,L1,Top*%
%TF.FilePolarity,Positive*%
%FSLAX46Y46*%
G04 Gerber Fmt 4.6, Leading zero omitted, Abs format (unit mm)*
G04 Created by KiCad (PCBNEW (6.0.4)) date 2022-05-02 09:06:26*
%MOMM*%
%LPD*%
G01*
G04 APERTURE LIST*
G04 Aperture macros list*
%AMRoundRect*
0 Rectangle with rounded corners*
0 $1 Rounding radius*
0 $2 $3 $4 $5 $6 $7 $8 $9 X,Y pos of 4 corners*
0 Add a 4 corners polygon primitive as box body*
4,1,4,$2,$3,$4,$5,$6,$7,$8,$9,$2,$3,0*
0 Add four circle primitives for the rounded corners*
1,1,$1+$1,$2,$3*
1,1,$1+$1,$4,$5*
1,1,$1+$1,$6,$7*
1,1,$1+$1,$8,$9*
0 Add four rect primitives between the rounded corners*
20,1,$1+$1,$2,$3,$4,$5,0*
20,1,$1+$1,$4,$5,$6,$7,0*
20,1,$1+$1,$6,$7,$8,$9,0*
20,1,$1+$1,$8,$9,$2,$3,0*%
G04 Aperture macros list end*
%TA.AperFunction,SMDPad,CuDef*%
%ADD10RoundRect,0.100000X-0.637500X-0.100000X0.637500X-0.100000X0.637500X0.100000X-0.637500X0.100000X0*%
%TD*%
%TA.AperFunction,ComponentPad*%
%ADD11R,1.600000X1.600000*%
%TD*%
%TA.AperFunction,ComponentPad*%
%ADD12C,1.600000*%
%TD*%
%TA.AperFunction,ComponentPad*%
%ADD13RoundRect,0.250000X-0.600000X-0.600000X0.600000X-0.600000X0.600000X0.600000X-0.600000X0.600000X0*%
%TD*%
%TA.AperFunction,ComponentPad*%
%ADD14C,1.700000*%
%TD*%
%TA.AperFunction,ComponentPad*%
%ADD15R,1.350000X1.350000*%
%TD*%
%TA.AperFunction,ComponentPad*%
%ADD16C,1.350000*%
%TD*%
%TA.AperFunction,ComponentPad*%
%ADD17O,1.600000X1.600000*%
%TD*%
%TA.AperFunction,ViaPad*%
%ADD18C,0.800000*%
%TD*%
%TA.AperFunction,Conductor*%
%ADD19C,0.250000*%
%TD*%
G04 APERTURE END LIST*
D10*
%TO.P,U3,1,A->B*%
%TO.N,/CPU_R{slash}W*%
X81137500Y-122075000D03*
%TO.P,U3,2,A0*%
%TO.N,/D8*%
X81137500Y-122725000D03*
%TO.P,U3,3,A1*%
%TO.N,/D9*%
X81137500Y-123375000D03*
%TO.P,U3,4,A2*%
%TO.N,/D10*%
X81137500Y-124025000D03*
%TO.P,U3,5,A3*%
%TO.N,/D11*%
X81137500Y-124675000D03*
%TO.P,U3,6,A4*%
%TO.N,/D12*%
X81137500Y-125325000D03*
%TO.P,U3,7,A5*%
%TO.N,/D13*%
X81137500Y-125975000D03*
%TO.P,U3,8,A6*%
%TO.N,/D14*%
X81137500Y-126625000D03*
%TO.P,U3,9,A7*%
%TO.N,/D15*%
X81137500Y-127275000D03*
%TO.P,U3,10,GND*%
%TO.N,GND*%
X81137500Y-127925000D03*
%TO.P,U3,11,B7*%
%TO.N,/CPU_D15*%
X86862500Y-127925000D03*
%TO.P,U3,12,B6*%
%TO.N,/CPU_D14*%
X86862500Y-127275000D03*
%TO.P,U3,13,B5*%
%TO.N,/CPU_D13*%
X86862500Y-126625000D03*
%TO.P,U3,14,B4*%
%TO.N,/CPU_D12*%
X86862500Y-125975000D03*
%TO.P,U3,15,B3*%
%TO.N,/CPU_D11*%
X86862500Y-125325000D03*
%TO.P,U3,16,B2*%
%TO.N,/CPU_D10*%
X86862500Y-124675000D03*
%TO.P,U3,17,B1*%
%TO.N,/CPU_D9*%
X86862500Y-124025000D03*
%TO.P,U3,18,B0*%
%TO.N,/CPU_D8*%
X86862500Y-123375000D03*
%TO.P,U3,19,CE*%
%TO.N,/~DCO*%
X86862500Y-122725000D03*
%TO.P,U3,20,VCC*%
%TO.N,+5V*%
X86862500Y-122075000D03*
%TD*%
%TO.P,U2,1,A->B*%
%TO.N,/CPU_R{slash}W*%
X100137500Y-122075000D03*
%TO.P,U2,2,A0*%
%TO.N,/D0*%
X100137500Y-122725000D03*
%TO.P,U2,3,A1*%
%TO.N,/D1*%
X100137500Y-123375000D03*
%TO.P,U2,4,A2*%
%TO.N,/D2*%
X100137500Y-124025000D03*
%TO.P,U2,5,A3*%
%TO.N,/D3*%
X100137500Y-124675000D03*
%TO.P,U2,6,A4*%
%TO.N,/D4*%
X100137500Y-125325000D03*
%TO.P,U2,7,A5*%
%TO.N,/D5*%
X100137500Y-125975000D03*
%TO.P,U2,8,A6*%
%TO.N,/D6*%
X100137500Y-126625000D03*
%TO.P,U2,9,A7*%
%TO.N,/D7*%
X100137500Y-127275000D03*
%TO.P,U2,10,GND*%
%TO.N,GND*%
X100137500Y-127925000D03*
%TO.P,U2,11,B7*%
%TO.N,/CPU_D7*%
X105862500Y-127925000D03*
%TO.P,U2,12,B6*%
%TO.N,/CPU_D6*%
X105862500Y-127275000D03*
%TO.P,U2,13,B5*%
%TO.N,/CPU_D5*%
X105862500Y-126625000D03*
%TO.P,U2,14,B4*%
%TO.N,/CPU_D4*%
X105862500Y-125975000D03*
%TO.P,U2,15,B3*%
%TO.N,/CPU_D3*%
X105862500Y-125325000D03*
%TO.P,U2,16,B2*%
%TO.N,/CPU_D2*%
X105862500Y-124675000D03*
%TO.P,U2,17,B1*%
%TO.N,/CPU_D1*%
X105862500Y-124025000D03*
%TO.P,U2,18,B0*%
%TO.N,/CPU_D0*%
X105862500Y-123375000D03*
%TO.P,U2,19,CE*%
%TO.N,/~DCO*%
X105862500Y-122725000D03*
%TO.P,U2,20,VCC*%
%TO.N,+5V*%
X105862500Y-122075000D03*
%TD*%
D11*
%TO.P,X1,1,EN*%
%TO.N,+5V*%
X67810000Y-75190000D03*
D12*
%TO.P,X1,4,GND*%
%TO.N,GND*%
X60190000Y-75190000D03*
%TO.P,X1,5,OUT*%
%TO.N,/CLK*%
X60190000Y-82810000D03*
%TO.P,X1,8,Vcc*%
%TO.N,+5V*%
X67810000Y-82810000D03*
%TD*%
D13*
%TO.P,J2,1,Pin_1*%
%TO.N,/CPU_A1*%
X93000000Y-51000000D03*
D14*
%TO.P,J2,2,Pin_2*%
%TO.N,unconnected-(J2-Pad2)*%
X95540000Y-51000000D03*
%TO.P,J2,3,Pin_3*%
%TO.N,/CPU_A2*%
X93000000Y-53540000D03*
%TO.P,J2,4,Pin_4*%
%TO.N,unconnected-(J2-Pad4)*%
X95540000Y-53540000D03*
%TO.P,J2,5,Pin_5*%
%TO.N,/CPU_A3*%
X93000000Y-56080000D03*
%TO.P,J2,6,Pin_6*%
%TO.N,unconnected-(J2-Pad6)*%
X95540000Y-56080000D03*
%TO.P,J2,7,Pin_7*%
%TO.N,/CPU_A4*%
X93000000Y-58620000D03*
%TO.P,J2,8,Pin_8*%
%TO.N,unconnected-(J2-Pad8)*%
X95540000Y-58620000D03*
%TO.P,J2,9,Pin_9*%
%TO.N,/CPU_A5*%
X93000000Y-61160000D03*
%TO.P,J2,10,Pin_10*%
%TO.N,/~DCO*%
X95540000Y-61160000D03*
%TO.P,J2,11,Pin_11*%
%TO.N,/CPU_A6*%
X93000000Y-63700000D03*
%TO.P,J2,12,Pin_12*%
%TO.N,/~CPU_BERR*%
X95540000Y-63700000D03*
%TO.P,J2,13,Pin_13*%
%TO.N,/CPU_A7*%
X93000000Y-66240000D03*
%TO.P,J2,14,Pin_14*%
%TO.N,/~CPU_DTACK*%
X95540000Y-66240000D03*
%TO.P,J2,15,Pin_15*%
%TO.N,/CPU_A8*%
X93000000Y-68780000D03*
%TO.P,J2,16,Pin_16*%
%TO.N,/CPU_R{slash}W*%
X95540000Y-68780000D03*
%TO.P,J2,17,Pin_17*%
%TO.N,/CPU_A9*%
X93000000Y-71320000D03*
%TO.P,J2,18,Pin_18*%
%TO.N,/~CPU_LDS*%
X95540000Y-71320000D03*
%TO.P,J2,19,Pin_19*%
%TO.N,/CPU_A10*%
X93000000Y-73860000D03*
%TO.P,J2,20,Pin_20*%
%TO.N,/~CPU_UDS*%
X95540000Y-73860000D03*
%TO.P,J2,21,Pin_21*%
%TO.N,/CPU_A11*%
X93000000Y-76400000D03*
%TO.P,J2,22,Pin_22*%
%TO.N,/~CPU_AS*%
X95540000Y-76400000D03*
%TO.P,J2,23,Pin_23*%
%TO.N,/CPU_A12*%
X93000000Y-78940000D03*
%TO.P,J2,24,Pin_24*%
%TO.N,/CPU_A23*%
X95540000Y-78940000D03*
%TO.P,J2,25,Pin_25*%
%TO.N,/CPU_A13*%
X93000000Y-81480000D03*
%TO.P,J2,26,Pin_26*%
%TO.N,/CPU_A22*%
X95540000Y-81480000D03*
%TO.P,J2,27,Pin_27*%
%TO.N,/CPU_A14*%
X93000000Y-84020000D03*
%TO.P,J2,28,Pin_28*%
%TO.N,/CPU_A21*%
X95540000Y-84020000D03*
%TO.P,J2,29,Pin_29*%
%TO.N,/CPU_A15*%
X93000000Y-86560000D03*
%TO.P,J2,30,Pin_30*%
%TO.N,/CPU_A20*%
X95540000Y-86560000D03*
%TO.P,J2,31,Pin_31*%
%TO.N,/CPU_A16*%
X93000000Y-89100000D03*
%TO.P,J2,32,Pin_32*%
%TO.N,/CPU_A19*%
X95540000Y-89100000D03*
%TO.P,J2,33,Pin_33*%
%TO.N,/CPU_A17*%
X93000000Y-91640000D03*
%TO.P,J2,34,Pin_34*%
%TO.N,/CPU_A18*%
X95540000Y-91640000D03*
%TD*%
D15*
%TO.P,J4,A1,A1*%
%TO.N,/BUS_A1*%
X111370000Y-132487500D03*
D16*
%TO.P,J4,A2,A2*%
%TO.N,/BUS_A2*%
X108830000Y-132487500D03*
%TO.P,J4,A3,A3*%
%TO.N,/BUS_A3*%
X106290000Y-132487500D03*
%TO.P,J4,A4,A4*%
%TO.N,/BUS_A4*%
X103750000Y-132487500D03*
%TO.P,J4,A5,A5*%
%TO.N,/BUS_A5*%
X101210000Y-132487500D03*
%TO.P,J4,A6,A6*%
%TO.N,/BUS_A6*%
X98670000Y-132487500D03*
%TO.P,J4,A7,A7*%
%TO.N,/BUS_A7*%
X96130000Y-132487500D03*
%TO.P,J4,A8,A8*%
%TO.N,/BUS_A8*%
X93590000Y-132487500D03*
%TO.P,J4,A9,A9*%
%TO.N,/BUS_A9*%
X91050000Y-132487500D03*
%TO.P,J4,A10,A10*%
%TO.N,/BUS_A10*%
X88510000Y-132487500D03*
%TO.P,J4,A11,A11*%
%TO.N,/BUS_A11*%
X85970000Y-132487500D03*
%TO.P,J4,A12,A12*%
%TO.N,/BUS_A12*%
X83430000Y-132487500D03*
%TO.P,J4,A13,A13*%
%TO.N,/BUS_A13*%
X80890000Y-132487500D03*
%TO.P,J4,A14,A14*%
%TO.N,/BUS_A14*%
X78350000Y-132487500D03*
%TO.P,J4,A15,A15*%
%TO.N,/BUS_A15*%
X75810000Y-132487500D03*
%TO.P,J4,A16,A16*%
%TO.N,/BUS_A16*%
X73270000Y-132487500D03*
%TO.P,J4,A17,A17*%
%TO.N,/BUS_A17*%
X70730000Y-132487500D03*
%TO.P,J4,A18,A18*%
%TO.N,/BUS_A18*%
X68190000Y-132487500D03*
%TO.P,J4,A19,A19*%
%TO.N,/BUS_A19*%
X65650000Y-132487500D03*
%TO.P,J4,A20,A20*%
%TO.N,/BUS_A20*%
X63110000Y-132487500D03*
%TO.P,J4,A21,A21*%
%TO.N,/BUS_A21*%
X60570000Y-132487500D03*
%TO.P,J4,A22,A22*%
%TO.N,/BUS_A22*%
X58030000Y-132487500D03*
%TO.P,J4,A23,A23*%
%TO.N,/BUS_A23*%
X55490000Y-132487500D03*
%TO.P,J4,A24,A24*%
%TO.N,/A24*%
X52950000Y-132487500D03*
%TO.P,J4,A25,A25*%
%TO.N,/A25*%
X50410000Y-132487500D03*
%TO.P,J4,A26,A26*%
%TO.N,/A26*%
X47870000Y-132487500D03*
%TO.P,J4,A27,A27*%
%TO.N,/A27*%
X45330000Y-132487500D03*
%TO.P,J4,A28,A28*%
%TO.N,/A28*%
X42790000Y-132487500D03*
%TO.P,J4,A29,A29*%
%TO.N,/A29*%
X40250000Y-132487500D03*
%TO.P,J4,A30,A30*%
%TO.N,/A30*%
X37710000Y-132487500D03*
%TO.P,J4,A31,A31*%
%TO.N,/A31*%
X35170000Y-132487500D03*
%TO.P,J4,A32,A32*%
%TO.N,/D0*%
X32630000Y-132487500D03*
%TO.P,J4,B1,B1*%
%TO.N,/D1*%
X111370000Y-135027500D03*
%TO.P,J4,B2,B2*%
%TO.N,/D2*%
X108830000Y-135027500D03*
%TO.P,J4,B3,B3*%
%TO.N,/D3*%
X106290000Y-135027500D03*
%TO.P,J4,B4,B4*%
%TO.N,/D4*%
X103750000Y-135027500D03*
%TO.P,J4,B5,B5*%
%TO.N,/D5*%
X101210000Y-135027500D03*
%TO.P,J4,B6,B6*%
%TO.N,/D6*%
X98670000Y-135027500D03*
%TO.P,J4,B7,B7*%
%TO.N,/D7*%
X96130000Y-135027500D03*
%TO.P,J4,B8,B8*%
%TO.N,/D8*%
X93590000Y-135027500D03*
%TO.P,J4,B9,B9*%
%TO.N,/D9*%
X91050000Y-135027500D03*
%TO.P,J4,B10,B10*%
%TO.N,/D10*%
X88510000Y-135027500D03*
%TO.P,J4,B11,B11*%
%TO.N,/D11*%
X85970000Y-135027500D03*
%TO.P,J4,B12,B12*%
%TO.N,/D12*%
X83430000Y-135027500D03*
%TO.P,J4,B13,B13*%
%TO.N,/D13*%
X80890000Y-135027500D03*
%TO.P,J4,B14,B14*%
%TO.N,/D14*%
X78350000Y-135027500D03*
%TO.P,J4,B15,B15*%
%TO.N,/D15*%
X75810000Y-135027500D03*
%TO.P,J4,B16,B16*%
%TO.N,/~CPU_BERR*%
X73270000Y-135027500D03*
%TO.P,J4,B17,B17*%
%TO.N,/~CPU_DTACK*%
X70730000Y-135027500D03*
%TO.P,J4,B18,B18*%
%TO.N,/~CPU_AS*%
X68190000Y-135027500D03*
%TO.P,J4,B19,B19*%
%TO.N,/~CPU_UDS*%
X65650000Y-135027500D03*
%TO.P,J4,B20,B20*%
%TO.N,/~CPU_LDS*%
X63110000Y-135027500D03*
%TO.P,J4,B21,B21*%
%TO.N,/CPU_R{slash}W*%
X60570000Y-135027500D03*
%TO.P,J4,B22,B22*%
%TO.N,/VPA*%
X58030000Y-135027500D03*
%TO.P,J4,B23,B23*%
%TO.N,/E*%
X55490000Y-135027500D03*
%TO.P,J4,B24,B24*%
%TO.N,/~VMA*%
X52950000Y-135027500D03*
%TO.P,J4,B25,B25*%
%TO.N,/FC2*%
X50410000Y-135027500D03*
%TO.P,J4,B26,B26*%
%TO.N,/FC1*%
X47870000Y-135027500D03*
%TO.P,J4,B27,B27*%
%TO.N,/FC0*%
X45330000Y-135027500D03*
%TO.P,J4,B28,B28*%
%TO.N,/~BR*%
X42790000Y-135027500D03*
%TO.P,J4,B29,B29*%
%TO.N,/~BG*%
X40250000Y-135027500D03*
%TO.P,J4,B30,B30*%
%TO.N,/~BGACK*%
X37710000Y-135027500D03*
%TO.P,J4,B31,B31*%
%TO.N,/~IPL2*%
X35170000Y-135027500D03*
%TO.P,J4,B32,B32*%
%TO.N,/~IPL1*%
X32630000Y-135027500D03*
%TO.P,J4,C1,C1*%
%TO.N,/~IPL0*%
X111370000Y-137567500D03*
%TO.P,J4,C2,C2*%
%TO.N,/CLK*%
X108830000Y-137567500D03*
%TO.P,J4,C3,C3*%
%TO.N,GND*%
X106290000Y-137567500D03*
%TO.P,J4,C4,C4*%
%TO.N,+5V*%
X103750000Y-137567500D03*
%TO.P,J4,C5,C5*%
%TO.N,unconnected-(J4-PadC5)*%
X101210000Y-137567500D03*
%TO.P,J4,C6,C6*%
%TO.N,unconnected-(J4-PadC6)*%
X98670000Y-137567500D03*
%TO.P,J4,C7,C7*%
%TO.N,unconnected-(J4-PadC7)*%
X96130000Y-137567500D03*
%TO.P,J4,C8,C8*%
%TO.N,unconnected-(J4-PadC8)*%
X93590000Y-137567500D03*
%TO.P,J4,C9,C9*%
%TO.N,unconnected-(J4-PadC9)*%
X91050000Y-137567500D03*
%TO.P,J4,C10,C10*%
%TO.N,unconnected-(J4-PadC10)*%
X88510000Y-137567500D03*
%TO.P,J4,C11,C11*%
%TO.N,unconnected-(J4-PadC11)*%
X85970000Y-137567500D03*
%TO.P,J4,C12,C12*%
%TO.N,unconnected-(J4-PadC12)*%
X83430000Y-137567500D03*
%TO.P,J4,C13,C13*%
%TO.N,unconnected-(J4-PadC13)*%
X80890000Y-137567500D03*
%TO.P,J4,C14,C14*%
%TO.N,unconnected-(J4-PadC14)*%
X78350000Y-137567500D03*
%TO.P,J4,C15,C15*%
%TO.N,unconnected-(J4-PadC15)*%
X75810000Y-137567500D03*
%TO.P,J4,C16,C16*%
%TO.N,unconnected-(J4-PadC16)*%
X73270000Y-137567500D03*
%TO.P,J4,C17,C17*%
%TO.N,unconnected-(J4-PadC17)*%
X70730000Y-137567500D03*
%TO.P,J4,C18,C18*%
%TO.N,unconnected-(J4-PadC18)*%
X68190000Y-137567500D03*
%TO.P,J4,C19,C19*%
%TO.N,unconnected-(J4-PadC19)*%
X65650000Y-137567500D03*
%TO.P,J4,C20,C20*%
%TO.N,unconnected-(J4-PadC20)*%
X63110000Y-137567500D03*
%TO.P,J4,C21,C21*%
%TO.N,unconnected-(J4-PadC21)*%
X60570000Y-137567500D03*
%TO.P,J4,C22,C22*%
%TO.N,unconnected-(J4-PadC22)*%
X58030000Y-137567500D03*
%TO.P,J4,C23,C23*%
%TO.N,unconnected-(J4-PadC23)*%
X55490000Y-137567500D03*
%TO.P,J4,C24,C24*%
%TO.N,unconnected-(J4-PadC24)*%
X52950000Y-137567500D03*
%TO.P,J4,C25,C25*%
%TO.N,unconnected-(J4-PadC25)*%
X50410000Y-137567500D03*
%TO.P,J4,C26,C26*%
%TO.N,unconnected-(J4-PadC26)*%
X47870000Y-137567500D03*
%TO.P,J4,C27,C27*%
%TO.N,unconnected-(J4-PadC27)*%
X45330000Y-137567500D03*
%TO.P,J4,C28,C28*%
%TO.N,unconnected-(J4-PadC28)*%
X42790000Y-137567500D03*
%TO.P,J4,C29,C29*%
%TO.N,unconnected-(J4-PadC29)*%
X40250000Y-137567500D03*
%TO.P,J4,C30,C30*%
%TO.N,unconnected-(J4-PadC30)*%
X37710000Y-137567500D03*
%TO.P,J4,C31,C31*%
%TO.N,unconnected-(J4-PadC31)*%
X35170000Y-137567500D03*
%TO.P,J4,C32,C32*%
%TO.N,unconnected-(J4-PadC32)*%
X32630000Y-137567500D03*
%TD*%
D11*
%TO.P,U1,1,D4*%
%TO.N,/CPU_D4*%
X28000000Y-46000000D03*
D17*
%TO.P,U1,2,D3*%
%TO.N,/CPU_D3*%
X28000000Y-48540000D03*
%TO.P,U1,3,D2*%
%TO.N,/CPU_D2*%
X28000000Y-51080000D03*
%TO.P,U1,4,D1*%
%TO.N,/CPU_D1*%
X28000000Y-53620000D03*
%TO.P,U1,5,D0*%
%TO.N,/CPU_D0*%
X28000000Y-56160000D03*
%TO.P,U1,6,AS*%
%TO.N,/~CPU_AS*%
X28000000Y-58700000D03*
%TO.P,U1,7,UDS*%
%TO.N,/~CPU_UDS*%
X28000000Y-61240000D03*
%TO.P,U1,8,LDS*%
%TO.N,/~CPU_LDS*%
X28000000Y-63780000D03*
%TO.P,U1,9,R/W*%
%TO.N,/CPU_R{slash}W*%
X28000000Y-66320000D03*
%TO.P,U1,10,DTACK*%
%TO.N,/~CPU_DTACK*%
X28000000Y-68860000D03*
%TO.P,U1,11,BG*%
%TO.N,/~BG*%
X28000000Y-71400000D03*
%TO.P,U1,12,BGACK*%
%TO.N,/~BGACK*%
X28000000Y-73940000D03*
%TO.P,U1,13,BR*%
%TO.N,/~BR*%
X28000000Y-76480000D03*
%TO.P,U1,14,VCC*%
%TO.N,+5V*%
X28000000Y-79020000D03*
%TO.P,U1,15,CLK*%
%TO.N,/CLK*%
X28000000Y-81560000D03*
%TO.P,U1,16,GND*%
%TO.N,GND*%
X28000000Y-84100000D03*
%TO.P,U1,17,HALT*%
%TO.N,/~HALT*%
X28000000Y-86640000D03*
%TO.P,U1,18,RESET*%
%TO.N,/~RESET*%
X28000000Y-89180000D03*
%TO.P,U1,19,VMA*%
%TO.N,/~VMA*%
X28000000Y-91720000D03*
%TO.P,U1,20,E*%
%TO.N,/E*%
X28000000Y-94260000D03*
%TO.P,U1,21,VPA*%
%TO.N,/VPA*%
X28000000Y-96800000D03*
%TO.P,U1,22,BERR*%
%TO.N,/~CPU_BERR*%
X28000000Y-99340000D03*
%TO.P,U1,23,IPL2*%
%TO.N,/~IPL2*%
X28000000Y-101880000D03*
%TO.P,U1,24,IPL1*%
%TO.N,/~IPL1*%
X28000000Y-104420000D03*
%TO.P,U1,25,IPL0*%
%TO.N,/~IPL0*%
X28000000Y-106960000D03*
%TO.P,U1,26,FC2*%
%TO.N,/FC2*%
X28000000Y-109500000D03*
%TO.P,U1,27,FC1*%
%TO.N,/FC1*%
X28000000Y-112040000D03*
%TO.P,U1,28,FC0*%
%TO.N,/FC0*%
X28000000Y-114580000D03*
%TO.P,U1,29,A1*%
%TO.N,/CPU_A1*%
X28000000Y-117120000D03*
%TO.P,U1,30,A2*%
%TO.N,/CPU_A2*%
X28000000Y-119660000D03*
%TO.P,U1,31,A3*%
%TO.N,/CPU_A3*%
X28000000Y-122200000D03*
%TO.P,U1,32,A4*%
%TO.N,/CPU_A4*%
X28000000Y-124740000D03*
%TO.P,U1,33,A5*%
%TO.N,/CPU_A5*%
X53400000Y-124740000D03*
%TO.P,U1,34,A6*%
%TO.N,/CPU_A6*%
X53400000Y-122200000D03*
%TO.P,U1,35,A7*%
%TO.N,/CPU_A7*%
X53400000Y-119660000D03*
%TO.P,U1,36,A8*%
%TO.N,/CPU_A8*%
X53400000Y-117120000D03*
%TO.P,U1,37,A9*%
%TO.N,/CPU_A9*%
X53400000Y-114580000D03*
%TO.P,U1,38,A10*%
%TO.N,/CPU_A10*%
X53400000Y-112040000D03*
%TO.P,U1,39,A11*%
%TO.N,/CPU_A11*%
X53400000Y-109500000D03*
%TO.P,U1,40,A12*%
%TO.N,/CPU_A12*%
X53400000Y-106960000D03*
%TO.P,U1,41,A13*%
%TO.N,/CPU_A13*%
X53400000Y-104420000D03*
%TO.P,U1,42,A14*%
%TO.N,/CPU_A14*%
X53400000Y-101880000D03*
%TO.P,U1,43,A15*%
%TO.N,/CPU_A15*%
X53400000Y-99340000D03*
%TO.P,U1,44,A16*%
%TO.N,/CPU_A16*%
X53400000Y-96800000D03*
%TO.P,U1,45,A17*%
%TO.N,/CPU_A17*%
X53400000Y-94260000D03*
%TO.P,U1,46,A18*%
%TO.N,/CPU_A18*%
X53400000Y-91720000D03*
%TO.P,U1,47,A19*%
%TO.N,/CPU_A19*%
X53400000Y-89180000D03*
%TO.P,U1,48,A20*%
%TO.N,/CPU_A20*%
X53400000Y-86640000D03*
%TO.P,U1,49,VCC*%
%TO.N,+5V*%
X53400000Y-84100000D03*
%TO.P,U1,50,A21*%
%TO.N,/CPU_A21*%
X53400000Y-81560000D03*
%TO.P,U1,51,A22*%
%TO.N,/CPU_A22*%
X53400000Y-79020000D03*
%TO.P,U1,52,A23*%
%TO.N,/CPU_A23*%
X53400000Y-76480000D03*
%TO.P,U1,53,GND*%
%TO.N,GND*%
X53400000Y-73940000D03*
%TO.P,U1,54,D15*%
%TO.N,/CPU_D15*%
X53400000Y-71400000D03*
%TO.P,U1,55,D14*%
%TO.N,/CPU_D14*%
X53400000Y-68860000D03*
%TO.P,U1,56,D13*%
%TO.N,/CPU_D13*%
X53400000Y-66320000D03*
%TO.P,U1,57,D12*%
%TO.N,/CPU_D12*%
X53400000Y-63780000D03*
%TO.P,U1,58,D11*%
%TO.N,/CPU_D11*%
X53400000Y-61240000D03*
%TO.P,U1,59,D10*%
%TO.N,/CPU_D10*%
X53400000Y-58700000D03*
%TO.P,U1,60,D9*%
%TO.N,/CPU_D9*%
X53400000Y-56160000D03*
%TO.P,U1,61,D8*%
%TO.N,/CPU_D8*%
X53400000Y-53620000D03*
%TO.P,U1,62,D7*%
%TO.N,/CPU_D7*%
X53400000Y-51080000D03*
%TO.P,U1,63,D6*%
%TO.N,/CPU_D6*%
X53400000Y-48540000D03*
%TO.P,U1,64,D5*%
%TO.N,/CPU_D5*%
X53400000Y-46000000D03*
%TD*%
D13*
%TO.P,J1,1,Pin_1*%
%TO.N,/BUS_A1*%
X103000000Y-51000000D03*
D14*
%TO.P,J1,2,Pin_2*%
%TO.N,unconnected-(J1-Pad2)*%
X105540000Y-51000000D03*
%TO.P,J1,3,Pin_3*%
%TO.N,/BUS_A2*%
X103000000Y-53540000D03*
%TO.P,J1,4,Pin_4*%
%TO.N,unconnected-(J1-Pad4)*%
X105540000Y-53540000D03*
%TO.P,J1,5,Pin_5*%
%TO.N,/BUS_A3*%
X103000000Y-56080000D03*
%TO.P,J1,6,Pin_6*%
%TO.N,unconnected-(J1-Pad6)*%
X105540000Y-56080000D03*
%TO.P,J1,7,Pin_7*%
%TO.N,/BUS_A4*%
X103000000Y-58620000D03*
%TO.P,J1,8,Pin_8*%
%TO.N,unconnected-(J1-Pad8)*%
X105540000Y-58620000D03*
%TO.P,J1,9,Pin_9*%
%TO.N,/BUS_A5*%
X103000000Y-61160000D03*
%TO.P,J1,10,Pin_10*%
%TO.N,+5V*%
X105540000Y-61160000D03*
%TO.P,J1,11,Pin_11*%
%TO.N,/BUS_A6*%
X103000000Y-63700000D03*
%TO.P,J1,12,Pin_12*%
%TO.N,/~BUS_BERR*%
X105540000Y-63700000D03*
%TO.P,J1,13,Pin_13*%
%TO.N,/BUS_A7*%
X103000000Y-66240000D03*
%TO.P,J1,14,Pin_14*%
%TO.N,/~BUS_DTACK*%
X105540000Y-66240000D03*
%TO.P,J1,15,Pin_15*%
%TO.N,/BUS_A8*%
X103000000Y-68780000D03*
%TO.P,J1,16,Pin_16*%
%TO.N,/BUS_R{slash}W*%
X105540000Y-68780000D03*
%TO.P,J1,17,Pin_17*%
%TO.N,/BUS_A9*%
X103000000Y-71320000D03*
%TO.P,J1,18,Pin_18*%
%TO.N,/~BUS_LDS*%
X105540000Y-71320000D03*
%TO.P,J1,19,Pin_19*%
%TO.N,/BUS_A10*%
X103000000Y-73860000D03*
%TO.P,J1,20,Pin_20*%
%TO.N,/~BUS_UDS*%
X105540000Y-73860000D03*
%TO.P,J1,21,Pin_21*%
%TO.N,/BUS_A11*%
X103000000Y-76400000D03*
%TO.P,J1,22,Pin_22*%
%TO.N,/~BUS_AS*%
X105540000Y-76400000D03*
%TO.P,J1,23,Pin_23*%
%TO.N,/BUS_A12*%
X103000000Y-78940000D03*
%TO.P,J1,24,Pin_24*%
%TO.N,/BUS_A23*%
X105540000Y-78940000D03*
%TO.P,J1,25,Pin_25*%
%TO.N,/BUS_A13*%
X103000000Y-81480000D03*
%TO.P,J1,26,Pin_26*%
%TO.N,/BUS_A22*%
X105540000Y-81480000D03*
%TO.P,J1,27,Pin_27*%
%TO.N,/BUS_A14*%
X103000000Y-84020000D03*
%TO.P,J1,28,Pin_28*%
%TO.N,/BUS_A21*%
X105540000Y-84020000D03*
%TO.P,J1,29,Pin_29*%
%TO.N,/BUS_A15*%
X103000000Y-86560000D03*
%TO.P,J1,30,Pin_30*%
%TO.N,/BUS_A20*%
X105540000Y-86560000D03*
%TO.P,J1,31,Pin_31*%
%TO.N,/BUS_A16*%
X103000000Y-89100000D03*
%TO.P,J1,32,Pin_32*%
%TO.N,/BUS_A19*%
X105540000Y-89100000D03*
%TO.P,J1,33,Pin_33*%
%TO.N,/BUS_A17*%
X103000000Y-91640000D03*
%TO.P,J1,34,Pin_34*%
%TO.N,/BUS_A18*%
X105540000Y-91640000D03*
%TD*%
D13*
%TO.P,J3,1,Pin_1*%
%TO.N,/CPU_A1*%
X113000000Y-51000000D03*
D14*
%TO.P,J3,2,Pin_2*%
%TO.N,unconnected-(J3-Pad2)*%
X115540000Y-51000000D03*
%TO.P,J3,3,Pin_3*%
%TO.N,/CPU_A2*%
X113000000Y-53540000D03*
%TO.P,J3,4,Pin_4*%
%TO.N,unconnected-(J3-Pad4)*%
X115540000Y-53540000D03*
%TO.P,J3,5,Pin_5*%
%TO.N,/CPU_A3*%
X113000000Y-56080000D03*
%TO.P,J3,6,Pin_6*%
%TO.N,unconnected-(J3-Pad6)*%
X115540000Y-56080000D03*
%TO.P,J3,7,Pin_7*%
%TO.N,/CPU_A4*%
X113000000Y-58620000D03*
%TO.P,J3,8,Pin_8*%
%TO.N,unconnected-(J3-Pad8)*%
X115540000Y-58620000D03*
%TO.P,J3,9,Pin_9*%
%TO.N,/CPU_A5*%
X113000000Y-61160000D03*
%TO.P,J3,10,Pin_10*%
%TO.N,unconnected-(J3-Pad10)*%
X115540000Y-61160000D03*
%TO.P,J3,11,Pin_11*%
%TO.N,/CPU_A6*%
X113000000Y-63700000D03*
%TO.P,J3,12,Pin_12*%
%TO.N,/~CPU_BERR*%
X115540000Y-63700000D03*
%TO.P,J3,13,Pin_13*%
%TO.N,/CPU_A7*%
X113000000Y-66240000D03*
%TO.P,J3,14,Pin_14*%
%TO.N,/~CPU_DTACK*%
X115540000Y-66240000D03*
%TO.P,J3,15,Pin_15*%
%TO.N,/CPU_A8*%
X113000000Y-68780000D03*
%TO.P,J3,16,Pin_16*%
%TO.N,/CPU_R{slash}W*%
X115540000Y-68780000D03*
%TO.P,J3,17,Pin_17*%
%TO.N,/CPU_A9*%
X113000000Y-71320000D03*
%TO.P,J3,18,Pin_18*%
%TO.N,/~CPU_LDS*%
X115540000Y-71320000D03*
%TO.P,J3,19,Pin_19*%
%TO.N,/CPU_A10*%
X113000000Y-73860000D03*
%TO.P,J3,20,Pin_20*%
%TO.N,/~CPU_UDS*%
X115540000Y-73860000D03*
%TO.P,J3,21,Pin_21*%
%TO.N,/CPU_A11*%
X113000000Y-76400000D03*
%TO.P,J3,22,Pin_22*%
%TO.N,/~CPU_AS*%
X115540000Y-76400000D03*
%TO.P,J3,23,Pin_23*%
%TO.N,/CPU_A12*%
X113000000Y-78940000D03*
%TO.P,J3,24,Pin_24*%
%TO.N,/CPU_A23*%
X115540000Y-78940000D03*
%TO.P,J3,25,Pin_25*%
%TO.N,/CPU_A13*%
X113000000Y-81480000D03*
%TO.P,J3,26,Pin_26*%
%TO.N,/CPU_A22*%
X115540000Y-81480000D03*
%TO.P,J3,27,Pin_27*%
%TO.N,/CPU_A14*%
X113000000Y-84020000D03*
%TO.P,J3,28,Pin_28*%
%TO.N,/CPU_A21*%
X115540000Y-84020000D03*
%TO.P,J3,29,Pin_29*%
%TO.N,/CPU_A15*%
X113000000Y-86560000D03*
%TO.P,J3,30,Pin_30*%
%TO.N,/CPU_A20*%
X115540000Y-86560000D03*
%TO.P,J3,31,Pin_31*%
%TO.N,/CPU_A16*%
X113000000Y-89100000D03*
%TO.P,J3,32,Pin_32*%
%TO.N,/CPU_A19*%
X115540000Y-89100000D03*
%TO.P,J3,33,Pin_33*%
%TO.N,/CPU_A17*%
X113000000Y-91640000D03*
%TO.P,J3,34,Pin_34*%
%TO.N,/CPU_A18*%
X115540000Y-91640000D03*
%TD*%
D18*
%TO.N,/CPU_D11*%
X62218700Y-62348800D03*
X96559300Y-118411800D03*
X92975200Y-123462800D03*
%TO.N,/CPU_D13*%
X64927600Y-66099300D03*
X95297200Y-119250800D03*
X89166500Y-126725400D03*
%TO.N,/CPU_D1*%
X57106900Y-55059200D03*
%TO.N,GND*%
X81166000Y-130659400D03*
%TO.N,/CLK*%
X67034500Y-131538600D03*
%TO.N,/D1*%
X96434700Y-129249500D03*
%TO.N,/~CPU_UDS*%
X64008800Y-72557000D03*
%TO.N,/CPU_A10*%
X91817200Y-95860000D03*
%TO.N,/~CPU_LDS*%
X60362500Y-71726300D03*
%TO.N,/~CPU_DTACK*%
X56039100Y-73892000D03*
%TO.N,/~CPU_BERR*%
X100204000Y-106157600D03*
%TO.N,+5V*%
X103673200Y-123141500D03*
%TO.N,/BUS_A4*%
X110683000Y-124933000D03*
%TD*%
D19*
%TO.N,/CPU_D5*%
X106595400Y-126625000D02*
X105862500Y-126625000D01*
X107849800Y-125370600D02*
X106595400Y-126625000D01*
X107849800Y-124021200D02*
X107849800Y-125370600D01*
X108285500Y-123585500D02*
X107849800Y-124021200D01*
X108285500Y-119429500D02*
X108285500Y-123585500D01*
X84422700Y-95566700D02*
X108285500Y-119429500D01*
X84422700Y-77022700D02*
X84422700Y-95566700D01*
X53400000Y-46000000D02*
X84422700Y-77022700D01*
%TO.N,/CPU_D6*%
X53400000Y-48540000D02*
X53400000Y-47414700D01*
X106582300Y-127275000D02*
X105862500Y-127275000D01*
X108303000Y-125554300D02*
X106582300Y-127275000D01*
X108303000Y-124204900D02*
X108303000Y-125554300D01*
X108735800Y-123772100D02*
X108303000Y-124204900D01*
X108735800Y-118899800D02*
X108735800Y-123772100D01*
X84965200Y-95129200D02*
X108735800Y-118899800D01*
X84965200Y-75971300D02*
X84965200Y-95129200D01*
X53853100Y-44859200D02*
X84965200Y-75971300D01*
X52882100Y-44859200D02*
X53853100Y-44859200D01*
X52274700Y-45466600D02*
X52882100Y-44859200D01*
X52274700Y-46570800D02*
X52274700Y-45466600D01*
X53118600Y-47414700D02*
X52274700Y-46570800D01*
X53400000Y-47414700D02*
X53118600Y-47414700D01*
%TO.N,/CPU_D7*%
X53400000Y-51080000D02*
X53400000Y-49954700D01*
X106623100Y-127925000D02*
X105862500Y-127925000D01*
X108753300Y-125794800D02*
X106623100Y-127925000D01*
X108753300Y-124391500D02*
X108753300Y-125794800D01*
X109186100Y-123958700D02*
X108753300Y-124391500D01*
X109186100Y-118713200D02*
X109186100Y-123958700D01*
X85415500Y-94942600D02*
X109186100Y-118713200D01*
X85415500Y-75784700D02*
X85415500Y-94942600D01*
X54039700Y-44408900D02*
X85415500Y-75784700D01*
X52695500Y-44408900D02*
X54039700Y-44408900D01*
X51819300Y-45285100D02*
X52695500Y-44408900D01*
X51819300Y-48655300D02*
X51819300Y-45285100D01*
X53118700Y-49954700D02*
X51819300Y-48655300D01*
X53400000Y-49954700D02*
X53118700Y-49954700D01*
%TO.N,/CPU_D8*%
X53400000Y-53620000D02*
X53400000Y-54745300D01*
X53589400Y-54745300D02*
X53400000Y-54745300D01*
X63870600Y-65026500D02*
X53589400Y-54745300D01*
X63870600Y-66824700D02*
X63870600Y-65026500D01*
X66659800Y-69613900D02*
X63870600Y-66824700D01*
X66659800Y-83754300D02*
X66659800Y-69613900D01*
X85788200Y-102882700D02*
X66659800Y-83754300D01*
X85788200Y-123025700D02*
X85788200Y-102882700D01*
X86137500Y-123375000D02*
X85788200Y-123025700D01*
X86862500Y-123375000D02*
X86137500Y-123375000D01*
%TO.N,/CPU_D9*%
X53400000Y-56160000D02*
X53400000Y-57285300D01*
X53681300Y-57285300D02*
X53400000Y-57285300D01*
X66209400Y-69813400D02*
X53681300Y-57285300D01*
X66209400Y-84467900D02*
X66209400Y-69813400D01*
X85337900Y-103596400D02*
X66209400Y-84467900D01*
X85337900Y-123225100D02*
X85337900Y-103596400D01*
X86137800Y-124025000D02*
X85337900Y-123225100D01*
X86862500Y-124025000D02*
X86137800Y-124025000D01*
%TO.N,/CPU_D10*%
X86135700Y-124675000D02*
X86862500Y-124675000D01*
X84801400Y-123340700D02*
X86135700Y-124675000D01*
X84801400Y-103696800D02*
X84801400Y-123340700D01*
X65308400Y-84203800D02*
X84801400Y-103696800D01*
X65308400Y-71452400D02*
X65308400Y-84203800D01*
X53681300Y-59825300D02*
X65308400Y-71452400D01*
X53400000Y-59825300D02*
X53681300Y-59825300D01*
X53400000Y-58700000D02*
X53400000Y-59825300D01*
%TO.N,/CPU_D11*%
X91113000Y-125325000D02*
X86862500Y-125325000D01*
X92975200Y-123462800D02*
X91113000Y-125325000D01*
X96559300Y-111106200D02*
X96559300Y-118411800D01*
X78000600Y-92547500D02*
X96559300Y-111106200D01*
X78000600Y-78130700D02*
X78000600Y-92547500D01*
X62218700Y-62348800D02*
X78000600Y-78130700D01*
%TO.N,/CPU_D12*%
X53400000Y-63780000D02*
X53400000Y-64905300D01*
X86147000Y-125975000D02*
X86862500Y-125975000D01*
X85797700Y-125625700D02*
X86147000Y-125975000D01*
X85797700Y-125354600D02*
X85797700Y-125625700D01*
X84351000Y-123907900D02*
X85797700Y-125354600D01*
X84351000Y-118138000D02*
X84351000Y-123907900D01*
X64803500Y-98590500D02*
X84351000Y-118138000D01*
X64803500Y-75116300D02*
X64803500Y-98590500D01*
X54592500Y-64905300D02*
X64803500Y-75116300D01*
X53400000Y-64905300D02*
X54592500Y-64905300D01*
%TO.N,/CPU_D13*%
X86962900Y-126725400D02*
X86862500Y-126625000D01*
X89166500Y-126725400D02*
X86962900Y-126725400D01*
X95297200Y-111117900D02*
X95297200Y-119250800D01*
X77550300Y-93371000D02*
X95297200Y-111117900D01*
X77550300Y-78722000D02*
X77550300Y-93371000D01*
X64927600Y-66099300D02*
X77550300Y-78722000D01*
%TO.N,/CPU_D14*%
X53400000Y-68860000D02*
X53400000Y-69985300D01*
X54565000Y-69985300D02*
X53400000Y-69985300D01*
X57678700Y-73099000D02*
X54565000Y-69985300D01*
X57678700Y-75158400D02*
X57678700Y-73099000D01*
X63646500Y-81126200D02*
X57678700Y-75158400D01*
X63646500Y-100620600D02*
X63646500Y-81126200D01*
X83900700Y-120874800D02*
X63646500Y-100620600D01*
X83900700Y-124094500D02*
X83900700Y-120874800D01*
X85347400Y-125541200D02*
X83900700Y-124094500D01*
X85347400Y-126500800D02*
X85347400Y-125541200D01*
X86121600Y-127275000D02*
X85347400Y-126500800D01*
X86862500Y-127275000D02*
X86121600Y-127275000D01*
%TO.N,/CPU_D15*%
X55337900Y-71400000D02*
X54525300Y-71400000D01*
X57228400Y-73290500D02*
X55337900Y-71400000D01*
X57228400Y-75345000D02*
X57228400Y-73290500D01*
X63196200Y-81312800D02*
X57228400Y-75345000D01*
X63196200Y-100914100D02*
X63196200Y-81312800D01*
X82705500Y-120423400D02*
X63196200Y-100914100D01*
X82705500Y-123536200D02*
X82705500Y-120423400D01*
X84704200Y-125534900D02*
X82705500Y-123536200D01*
X84704200Y-126496300D02*
X84704200Y-125534900D01*
X86132900Y-127925000D02*
X84704200Y-126496300D01*
X86862500Y-127925000D02*
X86132900Y-127925000D01*
X53400000Y-71400000D02*
X54525300Y-71400000D01*
%TO.N,/CPU_D0*%
X106585300Y-123375000D02*
X105862500Y-123375000D01*
X106934600Y-123025700D02*
X106585300Y-123375000D01*
X106934600Y-120304100D02*
X106934600Y-123025700D01*
X78451000Y-91820500D02*
X106934600Y-120304100D01*
X78451000Y-77434400D02*
X78451000Y-91820500D01*
X55428200Y-54411600D02*
X78451000Y-77434400D01*
X55428200Y-54042200D02*
X55428200Y-54411600D01*
X53851800Y-52465800D02*
X55428200Y-54042200D01*
X32819500Y-52465800D02*
X53851800Y-52465800D01*
X29125300Y-56160000D02*
X32819500Y-52465800D01*
X28000000Y-56160000D02*
X29125300Y-56160000D01*
%TO.N,/CPU_D1*%
X106572200Y-124025000D02*
X105862500Y-124025000D01*
X107384900Y-123212300D02*
X106572200Y-124025000D01*
X107384900Y-120096500D02*
X107384900Y-123212300D01*
X83071800Y-95783400D02*
X107384900Y-120096500D01*
X83071800Y-81024100D02*
X83071800Y-95783400D01*
X57106900Y-55059200D02*
X83071800Y-81024100D01*
%TO.N,/CPU_D2*%
X28000000Y-51080000D02*
X29125300Y-51080000D01*
X106559100Y-124675000D02*
X105862500Y-124675000D01*
X107835200Y-123398900D02*
X106559100Y-124675000D01*
X107835200Y-119909900D02*
X107835200Y-123398900D01*
X83581200Y-95655900D02*
X107835200Y-119909900D01*
X83581200Y-80507700D02*
X83581200Y-95655900D01*
X54794800Y-51721300D02*
X83581200Y-80507700D01*
X29766600Y-51721300D02*
X54794800Y-51721300D01*
X29125300Y-51080000D02*
X29766600Y-51721300D01*
%TO.N,/CPU_D3*%
X28000000Y-48540000D02*
X29125300Y-48540000D01*
X105111100Y-125325000D02*
X105862500Y-125325000D01*
X104320900Y-126115200D02*
X105111100Y-125325000D01*
X104320900Y-128362100D02*
X104320900Y-126115200D01*
X104863100Y-128904300D02*
X104320900Y-128362100D01*
X106997700Y-128904300D02*
X104863100Y-128904300D01*
X109653900Y-126248100D02*
X106997700Y-128904300D01*
X109653900Y-124936400D02*
X109653900Y-126248100D01*
X110086700Y-124503600D02*
X109653900Y-124936400D01*
X110086700Y-118340000D02*
X110086700Y-124503600D01*
X86316100Y-94569400D02*
X110086700Y-118340000D01*
X86316100Y-75371900D02*
X86316100Y-94569400D01*
X54442200Y-43498000D02*
X86316100Y-75371900D01*
X34167300Y-43498000D02*
X54442200Y-43498000D01*
X29125300Y-48540000D02*
X34167300Y-43498000D01*
%TO.N,/CPU_D4*%
X28000000Y-46000000D02*
X28000000Y-47125300D01*
X105105300Y-125975000D02*
X105862500Y-125975000D01*
X104771700Y-126308600D02*
X105105300Y-125975000D01*
X104771700Y-128176000D02*
X104771700Y-126308600D01*
X105049700Y-128454000D02*
X104771700Y-128176000D01*
X106736700Y-128454000D02*
X105049700Y-128454000D01*
X109203600Y-125987100D02*
X106736700Y-128454000D01*
X109203600Y-124749800D02*
X109203600Y-125987100D01*
X109636400Y-124317000D02*
X109203600Y-124749800D01*
X109636400Y-118526600D02*
X109636400Y-124317000D01*
X85865800Y-94756000D02*
X109636400Y-118526600D01*
X85865800Y-75558500D02*
X85865800Y-94756000D01*
X54265900Y-43958600D02*
X85865800Y-75558500D01*
X51748800Y-43958600D02*
X54265900Y-43958600D01*
X46099900Y-49607500D02*
X51748800Y-43958600D01*
X27415100Y-49607500D02*
X46099900Y-49607500D01*
X26874700Y-49067100D02*
X27415100Y-49607500D01*
X26874700Y-47969200D02*
X26874700Y-49067100D01*
X27718600Y-47125300D02*
X26874700Y-47969200D01*
X28000000Y-47125300D02*
X27718600Y-47125300D01*
%TO.N,/D5*%
X100925300Y-125975000D02*
X100137500Y-125975000D01*
X101225800Y-126275500D02*
X100925300Y-125975000D01*
X101225800Y-135011700D02*
X101225800Y-126275500D01*
X101210000Y-135027500D02*
X101225800Y-135011700D01*
%TO.N,/D6*%
X99397300Y-126625000D02*
X100137500Y-126625000D01*
X97658700Y-128363600D02*
X99397300Y-126625000D01*
X97658700Y-134016200D02*
X97658700Y-128363600D01*
X98670000Y-135027500D02*
X97658700Y-134016200D01*
%TO.N,/D7*%
X99384200Y-127275000D02*
X100137500Y-127275000D01*
X99066500Y-127592700D02*
X99384200Y-127275000D01*
X99066500Y-128924500D02*
X99066500Y-127592700D01*
X99687100Y-129545100D02*
X99066500Y-128924500D01*
X99687100Y-135437700D02*
X99687100Y-129545100D01*
X99090800Y-136034000D02*
X99687100Y-135437700D01*
X97136500Y-136034000D02*
X99090800Y-136034000D01*
X96130000Y-135027500D02*
X97136500Y-136034000D01*
%TO.N,/D8*%
X81901600Y-122725000D02*
X81137500Y-122725000D01*
X82240500Y-123063900D02*
X81901600Y-122725000D01*
X82240500Y-123708200D02*
X82240500Y-123063900D01*
X84253900Y-125721600D02*
X82240500Y-123708200D01*
X84253900Y-126707100D02*
X84253900Y-125721600D01*
X89780000Y-132233200D02*
X84253900Y-126707100D01*
X89780000Y-132660000D02*
X89780000Y-132233200D01*
X90877500Y-133757500D02*
X89780000Y-132660000D01*
X92320000Y-133757500D02*
X90877500Y-133757500D01*
X93590000Y-135027500D02*
X92320000Y-133757500D01*
%TO.N,/D9*%
X80433400Y-123375000D02*
X81137500Y-123375000D01*
X74809600Y-128998800D02*
X80433400Y-123375000D01*
X74809600Y-135470800D02*
X74809600Y-128998800D01*
X75587300Y-136248500D02*
X74809600Y-135470800D01*
X89829000Y-136248500D02*
X75587300Y-136248500D01*
X91050000Y-135027500D02*
X89829000Y-136248500D01*
%TO.N,/D10*%
X81920400Y-124025000D02*
X81137500Y-124025000D01*
X83803600Y-125908200D02*
X81920400Y-124025000D01*
X83803600Y-127360600D02*
X83803600Y-125908200D01*
X87240000Y-130797000D02*
X83803600Y-127360600D01*
X87240000Y-133757500D02*
X87240000Y-130797000D01*
X88510000Y-135027500D02*
X87240000Y-133757500D01*
%TO.N,/D11*%
X81834000Y-124675000D02*
X81137500Y-124675000D01*
X83353200Y-126194200D02*
X81834000Y-124675000D01*
X83353200Y-129583100D02*
X83353200Y-126194200D01*
X84700000Y-130929900D02*
X83353200Y-129583100D01*
X84700000Y-133757500D02*
X84700000Y-130929900D01*
X85970000Y-135027500D02*
X84700000Y-133757500D01*
%TO.N,/D12*%
X81847100Y-125325000D02*
X81137500Y-125325000D01*
X82680900Y-126158800D02*
X81847100Y-125325000D01*
X82680900Y-131125700D02*
X82680900Y-126158800D01*
X82413100Y-131393500D02*
X82680900Y-131125700D01*
X82413100Y-134010600D02*
X82413100Y-131393500D01*
X83430000Y-135027500D02*
X82413100Y-134010600D01*
%TO.N,/D13*%
X81962600Y-133954900D02*
X80890000Y-135027500D01*
X81962600Y-130888800D02*
X81962600Y-133954900D01*
X82217300Y-130634100D02*
X81962600Y-130888800D01*
X82217300Y-126357300D02*
X82217300Y-130634100D01*
X81835000Y-125975000D02*
X82217300Y-126357300D01*
X81137500Y-125975000D02*
X81835000Y-125975000D01*
%TO.N,/D14*%
X80428000Y-126625000D02*
X81137500Y-126625000D01*
X79391700Y-127661300D02*
X80428000Y-126625000D01*
X79391700Y-133985800D02*
X79391700Y-127661300D01*
X78350000Y-135027500D02*
X79391700Y-133985800D01*
%TO.N,/D15*%
X80414900Y-127275000D02*
X81137500Y-127275000D01*
X79842100Y-127847800D02*
X80414900Y-127275000D01*
X79842100Y-135024100D02*
X79842100Y-127847800D01*
X79080800Y-135785400D02*
X79842100Y-135024100D01*
X76567900Y-135785400D02*
X79080800Y-135785400D01*
X75810000Y-135027500D02*
X76567900Y-135785400D01*
%TO.N,/FC0*%
X28000000Y-114580000D02*
X28000000Y-115705300D01*
X28203600Y-115705300D02*
X28000000Y-115705300D01*
X44060000Y-131561700D02*
X28203600Y-115705300D01*
X44060000Y-133757500D02*
X44060000Y-131561700D01*
X45330000Y-135027500D02*
X44060000Y-133757500D01*
%TO.N,/FC1*%
X46600000Y-133757500D02*
X47870000Y-135027500D01*
X46600000Y-131484000D02*
X46600000Y-133757500D01*
X28281300Y-113165300D02*
X46600000Y-131484000D01*
X28000000Y-113165300D02*
X28281300Y-113165300D01*
X28000000Y-112040000D02*
X28000000Y-113165300D01*
%TO.N,/FC2*%
X48870400Y-133487900D02*
X50410000Y-135027500D01*
X48870400Y-131214400D02*
X48870400Y-133487900D01*
X28281300Y-110625300D02*
X48870400Y-131214400D01*
X28000000Y-110625300D02*
X28281300Y-110625300D01*
X28000000Y-109500000D02*
X28000000Y-110625300D01*
%TO.N,/~IPL0*%
X28000000Y-106960000D02*
X28000000Y-108085300D01*
X109812300Y-139125200D02*
X111370000Y-137567500D01*
X55598700Y-139125200D02*
X109812300Y-139125200D01*
X53950400Y-137476900D02*
X55598700Y-139125200D01*
X53950400Y-137148200D02*
X53950400Y-137476900D01*
X53197800Y-136395600D02*
X53950400Y-137148200D01*
X52878000Y-136395600D02*
X53197800Y-136395600D01*
X51680000Y-135197600D02*
X52878000Y-136395600D01*
X51680000Y-134791500D02*
X51680000Y-135197600D01*
X50646000Y-133757500D02*
X51680000Y-134791500D01*
X50249000Y-133757500D02*
X50646000Y-133757500D01*
X49409600Y-132918100D02*
X50249000Y-133757500D01*
X49409600Y-129213600D02*
X49409600Y-132918100D01*
X28281300Y-108085300D02*
X49409600Y-129213600D01*
X28000000Y-108085300D02*
X28281300Y-108085300D01*
%TO.N,/~IPL1*%
X26865600Y-129263100D02*
X32630000Y-135027500D01*
X26865600Y-106398400D02*
X26865600Y-129263100D01*
X27718700Y-105545300D02*
X26865600Y-106398400D01*
X28000000Y-105545300D02*
X27718700Y-105545300D01*
X28000000Y-104420000D02*
X28000000Y-105545300D01*
%TO.N,/~IPL2*%
X28000000Y-101880000D02*
X28000000Y-103005300D01*
X34162900Y-136034600D02*
X35170000Y-135027500D01*
X32188500Y-136034600D02*
X34162900Y-136034600D01*
X26415200Y-130261300D02*
X32188500Y-136034600D01*
X26415200Y-104308800D02*
X26415200Y-130261300D01*
X27718700Y-103005300D02*
X26415200Y-104308800D01*
X28000000Y-103005300D02*
X27718700Y-103005300D01*
%TO.N,/VPA*%
X28000000Y-96800000D02*
X28000000Y-97925300D01*
X56760000Y-133757500D02*
X58030000Y-135027500D01*
X56760000Y-130981600D02*
X56760000Y-133757500D01*
X51076800Y-125298400D02*
X56760000Y-130981600D01*
X51076800Y-120797600D02*
X51076800Y-125298400D01*
X28204500Y-97925300D02*
X51076800Y-120797600D01*
X28000000Y-97925300D02*
X28204500Y-97925300D01*
%TO.N,/E*%
X56505600Y-136043100D02*
X55490000Y-135027500D01*
X58440600Y-136043100D02*
X56505600Y-136043100D01*
X59036200Y-135447500D02*
X58440600Y-136043100D01*
X59036200Y-131984100D02*
X59036200Y-135447500D01*
X51527100Y-124475000D02*
X59036200Y-131984100D01*
X51527100Y-118631100D02*
X51527100Y-124475000D01*
X28281300Y-95385300D02*
X51527100Y-118631100D01*
X28000000Y-95385300D02*
X28281300Y-95385300D01*
X28000000Y-94260000D02*
X28000000Y-95385300D01*
%TO.N,/~VMA*%
X28000000Y-91720000D02*
X28000000Y-92845300D01*
X51860800Y-133938300D02*
X52950000Y-135027500D01*
X51860800Y-129266700D02*
X51860800Y-133938300D01*
X29125400Y-106531300D02*
X51860800Y-129266700D01*
X29125400Y-101413800D02*
X29125400Y-106531300D01*
X28177000Y-100465400D02*
X29125400Y-101413800D01*
X27843700Y-100465400D02*
X28177000Y-100465400D01*
X26872000Y-99493700D02*
X27843700Y-100465400D01*
X26872000Y-93692000D02*
X26872000Y-99493700D01*
X27718700Y-92845300D02*
X26872000Y-93692000D01*
X28000000Y-92845300D02*
X27718700Y-92845300D01*
%TO.N,GND*%
X100137500Y-135396300D02*
X100137500Y-127925000D01*
X100858000Y-136116800D02*
X100137500Y-135396300D01*
X104839300Y-136116800D02*
X100858000Y-136116800D01*
X106290000Y-137567500D02*
X104839300Y-136116800D01*
X29127100Y-82972900D02*
X28000000Y-84100000D01*
X29127100Y-81048100D02*
X29127100Y-82972900D01*
X28513600Y-80434600D02*
X29127100Y-81048100D01*
X27777600Y-80434600D02*
X28513600Y-80434600D01*
X27629100Y-80286000D02*
X27777600Y-80434600D01*
X26858500Y-79515500D02*
X27629100Y-80286000D01*
X26858500Y-68379800D02*
X26858500Y-79515500D01*
X27551600Y-67686700D02*
X26858500Y-68379800D01*
X29447300Y-67686700D02*
X27551600Y-67686700D01*
X35250400Y-73489800D02*
X29447300Y-67686700D01*
X40129900Y-73489800D02*
X35250400Y-73489800D01*
X40580100Y-73940000D02*
X40129900Y-73489800D01*
X53400000Y-73940000D02*
X40580100Y-73940000D01*
X81137500Y-130630900D02*
X81166000Y-130659400D01*
X81137500Y-127925000D02*
X81137500Y-130630900D01*
X106916000Y-136941500D02*
X106290000Y-137567500D01*
X106916100Y-136941500D02*
X106916000Y-136941500D01*
X107789500Y-136068100D02*
X106916100Y-136941500D01*
X111962000Y-136068100D02*
X107789500Y-136068100D01*
X112736700Y-136842800D02*
X111962000Y-136068100D01*
X112736700Y-138299500D02*
X112736700Y-136842800D01*
X111010300Y-140025900D02*
X112736700Y-138299500D01*
X51135900Y-140025900D02*
X111010300Y-140025900D01*
X50685600Y-139575600D02*
X51135900Y-140025900D01*
X35762900Y-139575600D02*
X50685600Y-139575600D01*
X33885500Y-137698200D02*
X35762900Y-139575600D01*
X33885500Y-137408200D02*
X33885500Y-137698200D01*
X32969000Y-136491700D02*
X33885500Y-137408200D01*
X32008700Y-136491700D02*
X32969000Y-136491700D01*
X25926300Y-130409300D02*
X32008700Y-136491700D01*
X25926300Y-81988800D02*
X25926300Y-130409300D01*
X27629100Y-80286000D02*
X25926300Y-81988800D01*
%TO.N,/CLK*%
X28000000Y-81560000D02*
X28000000Y-82685300D01*
X27516800Y-85232500D02*
X58978800Y-85232500D01*
X27099400Y-84815100D02*
X27516800Y-85232500D01*
X27099400Y-83382800D02*
X27099400Y-84815100D01*
X27796900Y-82685300D02*
X27099400Y-83382800D01*
X28000000Y-82685300D02*
X27796900Y-82685300D01*
X58978800Y-84021200D02*
X58978800Y-85232500D01*
X60190000Y-82810000D02*
X58978800Y-84021200D01*
X58978800Y-123482900D02*
X67034500Y-131538600D01*
X58978800Y-85232500D02*
X58978800Y-123482900D01*
%TO.N,/D0*%
X99411900Y-122725000D02*
X100137500Y-122725000D01*
X95125400Y-127011500D02*
X99411900Y-122725000D01*
X95125400Y-138031100D02*
X95125400Y-127011500D01*
X95712800Y-138618500D02*
X95125400Y-138031100D01*
X106718200Y-138618500D02*
X95712800Y-138618500D01*
X107722700Y-137614000D02*
X106718200Y-138618500D01*
X107722700Y-137260200D02*
X107722700Y-137614000D01*
X108464500Y-136518400D02*
X107722700Y-137260200D01*
X111775400Y-136518400D02*
X108464500Y-136518400D01*
X112241700Y-136984700D02*
X111775400Y-136518400D01*
X112241700Y-138157600D02*
X112241700Y-136984700D01*
X110823700Y-139575600D02*
X112241700Y-138157600D01*
X53858600Y-139575600D02*
X110823700Y-139575600D01*
X52850900Y-138567900D02*
X53858600Y-139575600D01*
X47420500Y-138567900D02*
X52850900Y-138567900D01*
X46600000Y-137747400D02*
X47420500Y-138567900D01*
X46600000Y-137374300D02*
X46600000Y-137747400D01*
X45792800Y-136567100D02*
X46600000Y-137374300D01*
X45425800Y-136567100D02*
X45792800Y-136567100D01*
X43790400Y-134931700D02*
X45425800Y-136567100D01*
X43790400Y-134577800D02*
X43790400Y-134931700D01*
X42970100Y-133757500D02*
X43790400Y-134577800D01*
X33900000Y-133757500D02*
X42970100Y-133757500D01*
X32630000Y-132487500D02*
X33900000Y-133757500D01*
%TO.N,/D1*%
X99398800Y-123375000D02*
X100137500Y-123375000D01*
X96434700Y-126339100D02*
X99398800Y-123375000D01*
X96434700Y-129249500D02*
X96434700Y-126339100D01*
%TO.N,/D2*%
X107785100Y-133982600D02*
X108830000Y-135027500D01*
X106338000Y-133982600D02*
X107785100Y-133982600D01*
X105245600Y-132890200D02*
X106338000Y-133982600D01*
X105245600Y-131197500D02*
X105245600Y-132890200D01*
X102970000Y-128921900D02*
X105245600Y-131197500D01*
X102970000Y-126102100D02*
X102970000Y-128921900D01*
X100892900Y-124025000D02*
X102970000Y-126102100D01*
X100137500Y-124025000D02*
X100892900Y-124025000D01*
%TO.N,/D3*%
X104750400Y-133487900D02*
X106290000Y-135027500D01*
X104750400Y-131436300D02*
X104750400Y-133487900D01*
X102295200Y-128981100D02*
X104750400Y-131436300D01*
X102295200Y-126071100D02*
X102295200Y-128981100D01*
X100899100Y-124675000D02*
X102295200Y-126071100D01*
X100137500Y-124675000D02*
X100899100Y-124675000D01*
%TO.N,/D4*%
X100912200Y-125325000D02*
X100137500Y-125325000D01*
X101844800Y-126257600D02*
X100912200Y-125325000D01*
X101844800Y-129329700D02*
X101844800Y-126257600D01*
X102691900Y-130176800D02*
X101844800Y-129329700D01*
X102691900Y-133969400D02*
X102691900Y-130176800D01*
X103750000Y-135027500D02*
X102691900Y-133969400D01*
%TO.N,/CPU_A18*%
X96723900Y-92823900D02*
X95540000Y-91640000D01*
X109469400Y-92823900D02*
X96723900Y-92823900D01*
X111832700Y-90460600D02*
X109469400Y-92823900D01*
X114360600Y-90460600D02*
X111832700Y-90460600D01*
X115540000Y-91640000D02*
X114360600Y-90460600D01*
%TO.N,/CPU_A17*%
X94637700Y-93277700D02*
X93000000Y-91640000D01*
X111362300Y-93277700D02*
X94637700Y-93277700D01*
X113000000Y-91640000D02*
X111362300Y-93277700D01*
%TO.N,/CPU_A19*%
X94782700Y-89100000D02*
X95540000Y-89100000D01*
X93574300Y-87891600D02*
X94782700Y-89100000D01*
X92504900Y-87891600D02*
X93574300Y-87891600D01*
X91772400Y-88624100D02*
X92504900Y-87891600D01*
X91772400Y-92112000D02*
X91772400Y-88624100D01*
X92543600Y-92883200D02*
X91772400Y-92112000D01*
X93050700Y-92883200D02*
X92543600Y-92883200D01*
X93906200Y-93738700D02*
X93050700Y-92883200D01*
X115148200Y-93738700D02*
X93906200Y-93738700D01*
X116744100Y-92142800D02*
X115148200Y-93738700D01*
X116744100Y-90304100D02*
X116744100Y-92142800D01*
X115540000Y-89100000D02*
X116744100Y-90304100D01*
%TO.N,/CPU_A16*%
X94190600Y-90290600D02*
X93000000Y-89100000D01*
X108914100Y-90290600D02*
X94190600Y-90290600D01*
X110104700Y-89100000D02*
X108914100Y-90290600D01*
X113000000Y-89100000D02*
X110104700Y-89100000D01*
%TO.N,/CPU_A20*%
X94346200Y-85366200D02*
X95540000Y-86560000D01*
X92507600Y-85366200D02*
X94346200Y-85366200D01*
X91322100Y-86551700D02*
X92507600Y-85366200D01*
X91322100Y-92298600D02*
X91322100Y-86551700D01*
X92357000Y-93333500D02*
X91322100Y-92298600D01*
X92864100Y-93333500D02*
X92357000Y-93333500D01*
X93719600Y-94189000D02*
X92864100Y-93333500D01*
X115334800Y-94189000D02*
X93719600Y-94189000D01*
X117194400Y-92329400D02*
X115334800Y-94189000D01*
X117194400Y-88214400D02*
X117194400Y-92329400D01*
X115540000Y-86560000D02*
X117194400Y-88214400D01*
%TO.N,/CPU_A15*%
X94183300Y-87743300D02*
X93000000Y-86560000D01*
X111816700Y-87743300D02*
X94183300Y-87743300D01*
X113000000Y-86560000D02*
X111816700Y-87743300D01*
%TO.N,/CPU_A21*%
X94351200Y-82831200D02*
X95540000Y-84020000D01*
X92462400Y-82831200D02*
X94351200Y-82831200D01*
X90871800Y-84421800D02*
X92462400Y-82831200D01*
X90871800Y-92485200D02*
X90871800Y-84421800D01*
X92170400Y-93783800D02*
X90871800Y-92485200D01*
X92677500Y-93783800D02*
X92170400Y-93783800D01*
X93533000Y-94639300D02*
X92677500Y-93783800D01*
X115521400Y-94639300D02*
X93533000Y-94639300D01*
X117644700Y-92516000D02*
X115521400Y-94639300D01*
X117644700Y-86124700D02*
X117644700Y-92516000D01*
X115540000Y-84020000D02*
X117644700Y-86124700D01*
%TO.N,/CPU_A14*%
X93757300Y-84020000D02*
X93000000Y-84020000D01*
X94965600Y-85228300D02*
X93757300Y-84020000D01*
X111791700Y-85228300D02*
X94965600Y-85228300D01*
X113000000Y-84020000D02*
X111791700Y-85228300D01*
%TO.N,/CPU_A22*%
X96730700Y-82670700D02*
X95540000Y-81480000D01*
X114349300Y-82670700D02*
X96730700Y-82670700D01*
X115540000Y-81480000D02*
X114349300Y-82670700D01*
%TO.N,/CPU_A13*%
X90421500Y-84058500D02*
X93000000Y-81480000D01*
X90421500Y-92671800D02*
X90421500Y-84058500D01*
X91983800Y-94234100D02*
X90421500Y-92671800D01*
X92490900Y-94234100D02*
X91983800Y-94234100D01*
X93346400Y-95089600D02*
X92490900Y-94234100D01*
X115708000Y-95089600D02*
X93346400Y-95089600D01*
X118095000Y-92702600D02*
X115708000Y-95089600D01*
X118095000Y-82322200D02*
X118095000Y-92702600D01*
X116060900Y-80288100D02*
X118095000Y-82322200D01*
X114859700Y-80288100D02*
X116060900Y-80288100D01*
X113667800Y-81480000D02*
X114859700Y-80288100D01*
X113000000Y-81480000D02*
X113667800Y-81480000D01*
%TO.N,/CPU_A23*%
X96720600Y-80120600D02*
X95540000Y-78940000D01*
X114359400Y-80120600D02*
X96720600Y-80120600D01*
X115540000Y-78940000D02*
X114359400Y-80120600D01*
%TO.N,/CPU_A12*%
X94185500Y-77754500D02*
X93000000Y-78940000D01*
X111814500Y-77754500D02*
X94185500Y-77754500D01*
X113000000Y-78940000D02*
X111814500Y-77754500D01*
%TO.N,/~CPU_AS*%
X96730600Y-75209400D02*
X95540000Y-76400000D01*
X114349400Y-75209400D02*
X96730600Y-75209400D01*
X115540000Y-76400000D02*
X114349400Y-75209400D01*
%TO.N,/CPU_A11*%
X89971200Y-79428800D02*
X93000000Y-76400000D01*
X89971200Y-92858400D02*
X89971200Y-79428800D01*
X91797200Y-94684400D02*
X89971200Y-92858400D01*
X92304300Y-94684400D02*
X91797200Y-94684400D01*
X93159800Y-95539900D02*
X92304300Y-94684400D01*
X115894600Y-95539900D02*
X93159800Y-95539900D01*
X118545300Y-92889200D02*
X115894600Y-95539900D01*
X118545300Y-80269300D02*
X118545300Y-92889200D01*
X116030700Y-77754700D02*
X118545300Y-80269300D01*
X114354700Y-77754700D02*
X116030700Y-77754700D01*
X113000000Y-76400000D02*
X114354700Y-77754700D01*
%TO.N,/~CPU_UDS*%
X28000000Y-61240000D02*
X29125300Y-61240000D01*
X53817100Y-62365300D02*
X64008800Y-72557000D01*
X30250600Y-62365300D02*
X53817100Y-62365300D01*
X29125300Y-61240000D02*
X30250600Y-62365300D01*
X94688000Y-73860000D02*
X95540000Y-73860000D01*
X89520900Y-79027100D02*
X94688000Y-73860000D01*
X89520900Y-93045000D02*
X89520900Y-79027100D01*
X91610600Y-95134700D02*
X89520900Y-93045000D01*
X92117700Y-95134700D02*
X91610600Y-95134700D01*
X92973200Y-95990200D02*
X92117700Y-95134700D01*
X116081200Y-95990200D02*
X92973200Y-95990200D01*
X118995600Y-93075800D02*
X116081200Y-95990200D01*
X118995600Y-77315600D02*
X118995600Y-93075800D01*
X115540000Y-73860000D02*
X118995600Y-77315600D01*
%TO.N,/CPU_A10*%
X91699000Y-95860000D02*
X91817200Y-95860000D01*
X89070600Y-93231600D02*
X91699000Y-95860000D01*
X89070600Y-77789400D02*
X89070600Y-93231600D01*
X93000000Y-73860000D02*
X89070600Y-77789400D01*
X114029400Y-72830600D02*
X113000000Y-73860000D01*
X116181600Y-72830600D02*
X114029400Y-72830600D01*
X119445900Y-76094900D02*
X116181600Y-72830600D01*
X119445900Y-93262400D02*
X119445900Y-76094900D01*
X116267800Y-96440500D02*
X119445900Y-93262400D01*
X92397700Y-96440500D02*
X116267800Y-96440500D01*
X91817200Y-95860000D02*
X92397700Y-96440500D01*
%TO.N,/~CPU_LDS*%
X94782700Y-71320000D02*
X95540000Y-71320000D01*
X93574900Y-70112200D02*
X94782700Y-71320000D01*
X92486200Y-70112200D02*
X93574900Y-70112200D01*
X88620300Y-73978100D02*
X92486200Y-70112200D01*
X88620300Y-93689100D02*
X88620300Y-73978100D01*
X91827200Y-96896000D02*
X88620300Y-93689100D01*
X116449200Y-96896000D02*
X91827200Y-96896000D01*
X119896200Y-93449000D02*
X116449200Y-96896000D01*
X119896200Y-75676200D02*
X119896200Y-93449000D01*
X115540000Y-71320000D02*
X119896200Y-75676200D01*
X28000000Y-63780000D02*
X29125300Y-63780000D01*
X32935300Y-67590000D02*
X29125300Y-63780000D01*
X56226200Y-67590000D02*
X32935300Y-67590000D01*
X60362500Y-71726300D02*
X56226200Y-67590000D01*
%TO.N,/CPU_A9*%
X94180600Y-72500600D02*
X93000000Y-71320000D01*
X111819400Y-72500600D02*
X94180600Y-72500600D01*
X113000000Y-71320000D02*
X111819400Y-72500600D01*
%TO.N,/CPU_R{slash}W*%
X81137500Y-122075000D02*
X80437400Y-122075000D01*
X28000000Y-66320000D02*
X29125300Y-66320000D01*
X35488200Y-72682900D02*
X29125300Y-66320000D01*
X55919700Y-72682900D02*
X35488200Y-72682900D01*
X56778100Y-73541300D02*
X55919700Y-72682900D01*
X56778100Y-75882900D02*
X56778100Y-73541300D01*
X61765800Y-80870600D02*
X56778100Y-75882900D01*
X61765800Y-103403400D02*
X61765800Y-80870600D01*
X80437400Y-122075000D02*
X61765800Y-103403400D01*
X73662600Y-133989300D02*
X72268300Y-133989300D01*
X74358200Y-134684900D02*
X73662600Y-133989300D01*
X74358200Y-136837000D02*
X74358200Y-134684900D01*
X76122500Y-138601300D02*
X74358200Y-136837000D01*
X88939500Y-138601300D02*
X76122500Y-138601300D01*
X89780100Y-137760700D02*
X88939500Y-138601300D01*
X89780100Y-137393600D02*
X89780100Y-137760700D01*
X90606500Y-136567200D02*
X89780100Y-137393600D01*
X93472900Y-136567200D02*
X90606500Y-136567200D01*
X94675000Y-135365100D02*
X93472900Y-136567200D01*
X94675000Y-126811900D02*
X94675000Y-135365100D01*
X99411900Y-122075000D02*
X94675000Y-126811900D01*
X100137500Y-122075000D02*
X99411900Y-122075000D01*
X72268300Y-130244100D02*
X72268300Y-133989300D01*
X80437400Y-122075000D02*
X72268300Y-130244100D01*
X61585600Y-136043100D02*
X60570000Y-135027500D01*
X71198000Y-136043100D02*
X61585600Y-136043100D01*
X72268300Y-134972800D02*
X71198000Y-136043100D01*
X72268300Y-133989300D02*
X72268300Y-134972800D01*
X111858600Y-125540200D02*
X111858600Y-97997900D01*
X107593900Y-129804900D02*
X111858600Y-125540200D01*
X104489900Y-129804900D02*
X107593900Y-129804900D01*
X103420300Y-128735300D02*
X104489900Y-129804900D01*
X103420300Y-124622200D02*
X103420300Y-128735300D01*
X100873100Y-122075000D02*
X103420300Y-124622200D01*
X100137500Y-122075000D02*
X100873100Y-122075000D01*
X92292200Y-97997900D02*
X111858600Y-97997900D01*
X88170000Y-93875700D02*
X92292200Y-97997900D01*
X88170000Y-71912800D02*
X88170000Y-93875700D01*
X92497800Y-67585000D02*
X88170000Y-71912800D01*
X94345000Y-67585000D02*
X92497800Y-67585000D01*
X95540000Y-68780000D02*
X94345000Y-67585000D01*
X120346500Y-73586500D02*
X115540000Y-68780000D01*
X120346500Y-93635600D02*
X120346500Y-73586500D01*
X115984200Y-97997900D02*
X120346500Y-93635600D01*
X111858600Y-97997900D02*
X115984200Y-97997900D01*
%TO.N,/CPU_A8*%
X94183500Y-69963500D02*
X93000000Y-68780000D01*
X111816500Y-69963500D02*
X94183500Y-69963500D01*
X113000000Y-68780000D02*
X111816500Y-69963500D01*
%TO.N,/~CPU_DTACK*%
X96717200Y-67417200D02*
X95540000Y-66240000D01*
X114362800Y-67417200D02*
X96717200Y-67417200D01*
X115540000Y-66240000D02*
X114362800Y-67417200D01*
X28000000Y-68860000D02*
X29125300Y-68860000D01*
X56039100Y-73892000D02*
X54693700Y-75237400D01*
X35502700Y-75237400D02*
X54693700Y-75237400D01*
X29125300Y-68860000D02*
X35502700Y-75237400D01*
X69460000Y-133757500D02*
X70730000Y-135027500D01*
X69460000Y-130140400D02*
X69460000Y-133757500D01*
X61315400Y-121995800D02*
X69460000Y-130140400D01*
X61315400Y-81859100D02*
X61315400Y-121995800D01*
X54693700Y-75237400D02*
X61315400Y-81859100D01*
%TO.N,/CPU_A7*%
X94177300Y-65062700D02*
X93000000Y-66240000D01*
X111822700Y-65062700D02*
X94177300Y-65062700D01*
X113000000Y-66240000D02*
X111822700Y-65062700D01*
%TO.N,/~CPU_BERR*%
X94903100Y-63700000D02*
X95540000Y-63700000D01*
X93633100Y-64970000D02*
X94903100Y-63700000D01*
X93068200Y-64970000D02*
X93633100Y-64970000D01*
X87719700Y-70318500D02*
X93068200Y-64970000D01*
X87719700Y-94062300D02*
X87719700Y-70318500D01*
X99815000Y-106157600D02*
X87719700Y-94062300D01*
X100204000Y-106157600D02*
X99815000Y-106157600D01*
X34208200Y-105548200D02*
X28000000Y-99340000D01*
X34208200Y-110771500D02*
X34208200Y-105548200D01*
X54060700Y-130624000D02*
X34208200Y-110771500D01*
X54060700Y-135049700D02*
X54060700Y-130624000D01*
X55504500Y-136493500D02*
X54060700Y-135049700D01*
X71804000Y-136493500D02*
X55504500Y-136493500D01*
X73270000Y-135027500D02*
X71804000Y-136493500D01*
%TO.N,/CPU_A6*%
X111797100Y-62497100D02*
X113000000Y-63700000D01*
X94849800Y-62497100D02*
X111797100Y-62497100D01*
X93646900Y-63700000D02*
X94849800Y-62497100D01*
X93000000Y-63700000D02*
X93646900Y-63700000D01*
%TO.N,/~DCO*%
X105148300Y-122725000D02*
X105862500Y-122725000D01*
X103870600Y-124002700D02*
X105148300Y-122725000D01*
X103508700Y-124002700D02*
X103870600Y-124002700D01*
X101054000Y-121548000D02*
X103508700Y-124002700D01*
X99289200Y-121548000D02*
X101054000Y-121548000D01*
X98112200Y-122725000D02*
X99289200Y-121548000D01*
X86862500Y-122725000D02*
X98112200Y-122725000D01*
X94270000Y-62430000D02*
X95540000Y-61160000D01*
X92518300Y-62430000D02*
X94270000Y-62430000D01*
X87269400Y-67678900D02*
X92518300Y-62430000D01*
X87269400Y-94248900D02*
X87269400Y-67678900D01*
X111408300Y-118387800D02*
X87269400Y-94248900D01*
X111408300Y-125301000D02*
X111408300Y-118387800D01*
X107354700Y-129354600D02*
X111408300Y-125301000D01*
X104676500Y-129354600D02*
X107354700Y-129354600D01*
X103870600Y-128548700D02*
X104676500Y-129354600D01*
X103870600Y-124002700D02*
X103870600Y-128548700D01*
%TO.N,/CPU_A5*%
X94184400Y-59975600D02*
X93000000Y-61160000D01*
X111815600Y-59975600D02*
X94184400Y-59975600D01*
X113000000Y-61160000D02*
X111815600Y-59975600D01*
%TO.N,/CPU_A2*%
X94190600Y-52349400D02*
X93000000Y-53540000D01*
X111809400Y-52349400D02*
X94190600Y-52349400D01*
X113000000Y-53540000D02*
X111809400Y-52349400D01*
%TO.N,/CPU_A1*%
X94186300Y-49813700D02*
X93000000Y-51000000D01*
X111813700Y-49813700D02*
X94186300Y-49813700D01*
X113000000Y-51000000D02*
X111813700Y-49813700D01*
%TO.N,+5V*%
X53400000Y-84100000D02*
X52274700Y-84100000D01*
X34205300Y-84100000D02*
X52274700Y-84100000D01*
X29125300Y-79020000D02*
X34205300Y-84100000D01*
X28000000Y-79020000D02*
X29125300Y-79020000D01*
X104739700Y-122075000D02*
X105862500Y-122075000D01*
X103673200Y-123141500D02*
X104739700Y-122075000D01*
X67810000Y-75190000D02*
X67810000Y-82810000D01*
X87839900Y-104297500D02*
X87839900Y-121097600D01*
X67810000Y-84267600D02*
X87839900Y-104297500D01*
X67810000Y-82810000D02*
X67810000Y-84267600D01*
X101629300Y-121097600D02*
X87839900Y-121097600D01*
X103673200Y-123141500D02*
X101629300Y-121097600D01*
X87839900Y-121097600D02*
X86862500Y-122075000D01*
%TO.N,/BUS_A4*%
X110683000Y-118299400D02*
X110683000Y-124933000D01*
X86766500Y-94382900D02*
X110683000Y-118299400D01*
X86766500Y-63163900D02*
X86766500Y-94382900D01*
X92505400Y-57425000D02*
X86766500Y-63163900D01*
X101805000Y-57425000D02*
X92505400Y-57425000D01*
X103000000Y-58620000D02*
X101805000Y-57425000D01*
%TO.N,/BUS_A3*%
X104364600Y-57444600D02*
X103000000Y-56080000D01*
X113525600Y-57444600D02*
X104364600Y-57444600D01*
X114364600Y-58283600D02*
X113525600Y-57444600D01*
X114364600Y-59145600D02*
X114364600Y-58283600D01*
X115109000Y-59890000D02*
X114364600Y-59145600D01*
X115933100Y-59890000D02*
X115109000Y-59890000D01*
X120796800Y-64753700D02*
X115933100Y-59890000D01*
X120796800Y-117980700D02*
X120796800Y-64753700D01*
X106290000Y-132487500D02*
X120796800Y-117980700D01*
%TO.N,/BUS_A2*%
X104270000Y-54810000D02*
X103000000Y-53540000D01*
X114510300Y-54810000D02*
X104270000Y-54810000D01*
X121247100Y-61546800D02*
X114510300Y-54810000D01*
X121247100Y-120070400D02*
X121247100Y-61546800D01*
X108830000Y-132487500D02*
X121247100Y-120070400D01*
%TD*%
M02*
